<svg width="37" height="36" viewBox="0 0 37 36" fill="none" xmlns="http://www.w3.org/2000/svg">
<path d="M18.6 0C8.69998 0 0.599991 8.11445 0.599991 18.1085C0.599991 27.1446 7.18798 34.6446 15.792 36V23.3494H11.22V18.1085H15.792V14.1144C15.792 9.5783 18.474 7.08433 22.596 7.08433C24.558 7.08433 26.61 7.4277 26.61 7.4277V11.8916H24.342C22.11 11.8916 21.408 13.2831 21.408 14.7109V18.1085H26.412L25.602 23.3494H21.408V36C25.6495 35.3274 29.5119 33.1545 32.2978 29.8735C35.0836 26.5927 36.6097 22.4198 36.5999 18.1085C36.5999 8.11445 28.5 0 18.6 0Z" fill="#08081B"/>
</svg>
