<svg width="37" height="36" viewBox="0 0 37 36" fill="none" xmlns="http://www.w3.org/2000/svg">
<g clip-path="url(#clip0_1967_19597)">
<path d="M18.7998 0C8.85762 0 0.799805 8.05781 0.799805 18C0.799805 27.9422 8.85762 36 18.7998 36C28.742 36 36.7998 27.9422 36.7998 18C36.7998 8.05781 28.742 0 18.7998 0ZM13.7654 25.5305H10.2568V14.3016H13.7654V25.5305ZM11.9162 12.8953H11.8881C10.6154 12.8953 9.79277 12.0375 9.79277 10.9477C9.79277 9.83672 10.6436 9 11.9373 9C13.2311 9 14.0256 9.83672 14.0537 10.9477C14.0607 12.0305 13.2381 12.8953 11.9162 12.8953ZM27.7998 25.5305H23.8201V19.7227C23.8201 18.2039 23.2014 17.1633 21.8303 17.1633C20.7826 17.1633 20.199 17.8664 19.9318 18.5414C19.8334 18.7805 19.8475 19.118 19.8475 19.4625V25.5305H15.9029C15.9029 25.5305 15.9521 15.2367 15.9029 14.3016H19.8475V16.0664C20.0795 15.293 21.3381 14.1961 23.349 14.1961C25.8451 14.1961 27.7998 15.8133 27.7998 19.2867V25.5305Z" fill="#08081B"/>
</g>
<defs>
<clipPath id="clip0_1967_19597">
<rect width="36" height="36" fill="white" transform="translate(0.799805)"/>
</clipPath>
</defs>
</svg>
