<svg width="37" height="36" viewBox="0 0 37 36" fill="none" xmlns="http://www.w3.org/2000/svg">
<g clip-path="url(#clip0_1967_19548)">
<path fill-rule="evenodd" clip-rule="evenodd" d="M28.6778 25.418C28.244 26.6459 26.5196 27.6618 25.1444 27.9589C24.203 28.1587 22.9754 28.3169 18.839 26.6027C14.1932 24.678 7.742 17.8217 7.742 13.2592C7.742 10.9365 9.0812 8.23184 11.423 8.23184C12.5498 8.23184 12.7982 8.25381 13.169 9.14326C13.6028 10.1912 14.6612 12.773 14.7872 13.0377C15.3074 14.1234 14.258 14.759 13.4966 15.7043C13.2536 15.9888 12.9782 16.2964 13.286 16.8258C13.592 17.3443 14.6504 19.0693 16.2056 20.4539C18.2144 22.2436 19.8434 22.815 20.4266 23.0581C20.8604 23.2382 21.3788 23.1962 21.6956 22.8577C22.097 22.4238 22.5956 21.7038 23.1032 20.9944C23.4614 20.4867 23.9168 20.4233 24.3938 20.6033C24.716 20.715 28.811 22.6167 28.9838 22.921C29.1116 23.1425 29.1116 24.19 28.6778 25.418ZM18.2036 0H18.1946C8.27119 0 0.199997 8.07363 0.199997 18C0.199997 21.936 1.46901 25.5876 3.62721 28.5495L1.38441 35.238L8.30181 33.0275C11.1476 34.9109 14.5442 36 18.2036 36C28.127 36 36.2 27.9264 36.2 18C36.2 8.07363 28.127 0 18.2036 0Z" fill="#08081B"/>
</g>
<defs>
<clipPath id="clip0_1967_19548">
<rect width="36" height="36" fill="white" transform="translate(0.199997)"/>
</clipPath>
</defs>
</svg>
