<svg width="36" height="36" viewBox="0 0 36 36" fill="none" xmlns="http://www.w3.org/2000/svg">
<g clip-path="url(#clip0_2325_38261)">
<path fill-rule="evenodd" clip-rule="evenodd" d="M14.3792 22.6554V12.5541C17.9652 14.2415 20.7425 15.8715 24.0272 17.6289C21.318 19.1314 17.9652 20.8172 14.3792 22.6554ZM34.3638 7.5303C33.7452 6.71533 32.691 6.08095 31.5686 5.87093C28.2695 5.24444 7.68777 5.24265 4.39047 5.87093C3.4904 6.03966 2.68891 6.44751 2.0004 7.08118C-0.900653 9.7738 0.00839913 24.2135 0.707665 26.5525C1.00171 27.5649 1.38184 28.2951 1.86057 28.7743C2.47736 29.408 3.32184 29.8443 4.29184 30.04C7.00822 30.6018 21.0025 30.916 31.5112 30.1243C32.4794 29.9556 33.3364 29.5053 34.0124 28.8447C36.6947 26.1628 36.5118 10.9122 34.3638 7.5303Z" fill="#F2F8FF"/>
</g>
<defs>
<clipPath id="clip0_2325_38261">
<rect width="36" height="36" fill="white"/>
</clipPath>
</defs>
</svg>
