<svg width="8" height="16" viewBox="0 0 8 16" fill="none" xmlns="http://www.w3.org/2000/svg">
<path d="M3.99916 16C3.30471 16 2.71443 15.7569 2.22832 15.2708C1.74221 14.7847 1.49916 14.1944 1.49916 13.5C1.49916 12.8056 1.74221 12.2153 2.22832 11.7292C2.71443 11.2431 3.30471 11 3.99916 11C4.6936 11 5.28388 11.2431 5.76999 11.7292C6.2561 12.2153 6.49916 12.8056 6.49916 13.5C6.49916 14.1944 6.2561 14.7847 5.76999 15.2708C5.28388 15.7569 4.6936 16 3.99916 16ZM3.24916 6.625V0.75C3.24916 0.5375 3.32061 0.359375 3.46353 0.215624C3.60645 0.0718745 3.78353 0 3.99478 0C4.20603 0 4.38457 0.0718745 4.53041 0.215624C4.67624 0.359375 4.74916 0.5375 4.74916 0.75V6.625L6.41582 4.95833C6.5686 4.80556 6.74686 4.72917 6.95061 4.72917C7.15423 4.72917 7.33013 4.80556 7.47832 4.95833C7.6311 5.10653 7.70749 5.28243 7.70749 5.48604C7.70749 5.68979 7.6311 5.86806 7.47832 6.02083L4.51999 8.97917C4.37221 9.13194 4.19985 9.20833 4.00291 9.20833C3.80596 9.20833 3.6311 9.13194 3.47832 8.97917L0.517073 6.01792C0.366239 5.86708 0.294295 5.69097 0.30124 5.48958C0.308184 5.28819 0.388045 5.11111 0.540823 4.95833C0.693601 4.80556 0.870684 4.72917 1.07207 4.72917C1.27346 4.72917 1.45055 4.80556 1.60332 4.95833L3.24916 6.625Z" fill="#F2F8FF"/>
</svg>
