<svg width="9" height="16" viewBox="0 0 9 16" fill="none" xmlns="http://www.w3.org/2000/svg">
<path d="M4.55469 16.0003C3.86024 16.0003 3.26997 15.7573 2.78385 15.2712C2.29774 14.785 2.05469 14.1948 2.05469 13.5003C2.05469 12.8059 2.29774 12.2156 2.78385 11.7295C3.26997 11.2434 3.86024 11.0003 4.55469 11.0003C5.24913 11.0003 5.83941 11.2434 6.32552 11.7295C6.81163 12.2156 7.05469 12.8059 7.05469 13.5003C7.05469 14.1948 6.81163 14.785 6.32552 15.2712C5.83941 15.7573 5.24913 16.0003 4.55469 16.0003ZM3.80469 2.87533L2.13802 4.54199C1.98524 4.69477 1.81163 4.76769 1.61719 4.76074C1.42274 4.7538 1.24913 4.67394 1.09635 4.52116C0.943576 4.36838 0.867188 4.1913 0.867188 3.98991C0.867188 3.78852 0.942118 3.6129 1.09198 3.46303L4.03385 0.521159C4.18163 0.368381 4.35399 0.291992 4.55094 0.291992C4.74788 0.291992 4.92274 0.368381 5.07552 0.521159L8.03385 3.47949C8.18663 3.63227 8.26302 3.80588 8.26302 4.00033C8.26302 4.19477 8.18663 4.37171 8.03385 4.53116C7.88108 4.67727 7.70399 4.75033 7.5026 4.75033C7.30122 4.75033 7.12413 4.67394 6.97135 4.52116L5.30469 2.87533V8.75033C5.30469 8.96283 5.23323 9.14095 5.09031 9.2847C4.9474 9.42845 4.77031 9.50033 4.55906 9.50033C4.34781 9.50033 4.16927 9.42845 4.02344 9.2847C3.8776 9.14095 3.80469 8.96283 3.80469 8.75033V2.87533Z" fill="#F2F8FF"/>
</svg>
