<svg width="21" height="20" viewBox="0 0 21 20" fill="none" xmlns="http://www.w3.org/2000/svg">
<g opacity="0.5">
<mask id="mask0_1974_58418" style="mask-type:alpha" maskUnits="userSpaceOnUse" x="0" y="0" width="21" height="20">
<rect x="0.111328" width="20" height="20" fill="#D9D9D9"/>
</mask>
<g mask="url(#mask0_1974_58418)">
<path d="M6.86133 16C6.65299 16 6.47591 15.9271 6.33008 15.7812C6.18424 15.6354 6.11133 15.4583 6.11133 15.25C6.11133 15.0417 6.18424 14.8646 6.33008 14.7188C6.47591 14.5729 6.65299 14.5 6.86133 14.5H12.1113C12.8058 14.5 13.3961 14.2569 13.8822 13.7708C14.3683 13.2847 14.6113 12.6944 14.6113 12C14.6113 11.3056 14.3683 10.7153 13.8822 10.2292C13.3961 9.74306 12.8058 9.5 12.1113 9.5H6.98633L8.38216 10.9167C8.53494 11.0694 8.61133 11.2465 8.61133 11.4479C8.61133 11.6493 8.53494 11.8264 8.38216 11.9792C8.22938 12.1319 8.05577 12.2083 7.86133 12.2083C7.66688 12.2083 7.49327 12.1319 7.34049 11.9792L4.63216 9.27083C4.56272 9.20139 4.51063 9.12153 4.47591 9.03125C4.44119 8.94097 4.42383 8.84722 4.42383 8.75C4.42383 8.65278 4.44119 8.55903 4.47591 8.46875C4.51063 8.37847 4.56272 8.29861 4.63216 8.22917L7.31966 5.54167C7.47244 5.38889 7.64952 5.3125 7.85091 5.3125C8.0523 5.3125 8.22938 5.38889 8.38216 5.54167C8.53494 5.69444 8.6148 5.86806 8.62175 6.0625C8.62869 6.25694 8.55577 6.43056 8.40299 6.58333L6.98633 8H12.1113C13.2224 8 14.1669 8.38889 14.9447 9.16667C15.7224 9.94444 16.1113 10.8889 16.1113 12C16.1113 13.1111 15.7224 14.0556 14.9447 14.8333C14.1669 15.6111 13.2224 16 12.1113 16H6.86133Z" fill="#F2F8FF"/>
</g>
</g>
</svg>
