<svg width="161" height="48" viewBox="0 0 161 48" fill="none" xmlns="http://www.w3.org/2000/svg">
<g clip-path="url(#clip0_1478_10577)">
<g clip-path="url(#clip1_1478_10577)">
<path d="M18.6115 4.86007H5.72594V11.7479H17.5951C18.4706 11.7479 19.1247 11.9378 19.5524 12.3273C19.9851 12.7169 20.1964 13.2314 20.1964 13.8658C20.1964 14.5001 19.9851 15.0246 19.5574 15.4241C19.1347 15.8287 18.4807 16.0285 17.5901 16.0285H5.72594V24.0053H19.0593C19.9599 24.0053 20.6391 24.2101 21.092 24.6246C21.5498 25.0392 21.7762 25.5936 21.7762 26.2779C21.7762 26.9622 21.5498 27.4817 21.092 27.8912C20.6391 28.3058 19.9599 28.5106 19.0593 28.5106H3.50707C2.25927 28.5106 1.36367 28.2359 0.815243 27.6915C0.271847 27.142 -0.00488281 26.2579 -0.00488281 25.0342V3.961C-0.00488281 3.14185 0.115872 2.47754 0.362413 1.95807C0.608954 1.44361 0.986312 1.064 1.50958 0.829242C2.02782 0.594485 2.697 0.474609 3.50707 0.474609H18.6115C19.5222 0.474609 20.2014 0.674403 20.6442 1.07898C21.0869 1.47857 21.3083 2.00802 21.3083 2.65735C21.3083 3.30668 21.0869 3.85112 20.6442 4.2557C20.2014 4.66028 19.5222 4.86007 18.6115 4.86007Z" fill="#035AA9"/>
<path d="M43.834 22.5312C43.834 23.1806 43.6378 23.8749 43.2453 24.6141C42.8529 25.3583 42.2541 26.0626 41.4541 26.7319C40.6491 27.4012 39.6378 27.9406 38.4201 28.3452C37.2025 28.7548 35.8239 28.9596 34.2944 28.9596C31.044 28.9596 28.5082 28.0156 26.6868 26.1375C24.8604 24.2545 23.9497 21.7321 23.9497 18.5703C23.9497 16.4276 24.3673 14.5345 25.2025 12.8912C26.0378 11.2479 27.2453 9.97424 28.8252 9.07517C30.4101 8.1761 32.2969 7.72656 34.4906 7.72656C35.8541 7.72656 37.1019 7.92636 38.239 8.32095C39.3761 8.71554 40.3371 9.22501 41.1271 9.84937C41.917 10.4737 42.5208 11.143 42.9384 11.8473C43.356 12.5566 43.5673 13.2159 43.5673 13.8302C43.5673 14.4446 43.3308 14.9841 42.8629 15.4186C42.395 15.8532 41.8264 16.0679 41.1573 16.0679C40.7195 16.0679 40.3573 15.958 40.0705 15.7333C39.7837 15.5085 39.4566 15.1489 39.0994 14.6544C38.4554 13.6854 37.7862 12.9611 37.0868 12.4766C36.3874 11.9921 35.4969 11.7524 34.4151 11.7524C32.8604 11.7524 31.6076 12.3518 30.6566 13.5605C29.7057 14.7643 29.2327 16.4126 29.2327 18.5054C29.2327 19.4894 29.3535 20.3885 29.6 21.2126C29.8415 22.0368 30.1937 22.736 30.6566 23.3154C31.1195 23.8998 31.678 24.3394 32.3321 24.6391C32.9862 24.9388 33.7057 25.0886 34.4906 25.0886C35.5422 25.0886 36.4478 24.8439 37.1975 24.3594C37.9472 23.8749 38.6113 23.1356 39.19 22.1416C39.512 21.5523 39.8591 21.0927 40.2315 20.7631C40.6038 20.4334 41.0566 20.2636 41.6 20.2636C42.239 20.2636 42.7774 20.5083 43.2 20.9928C43.6227 21.4773 43.834 21.9968 43.834 22.5412" fill="#035AA9"/>
<path d="M67.1246 18.3807C67.1246 19.9341 66.8831 21.3676 66.3951 22.6813C65.907 23.9949 65.1976 25.1238 64.2718 26.0678C63.346 27.0118 62.2441 27.7361 60.9611 28.2405C59.6781 28.745 58.229 28.9948 56.624 28.9948C55.019 28.9948 53.6001 28.74 52.3271 28.2305C51.0542 27.7211 49.9523 26.9918 49.0215 26.0428C48.0907 25.0938 47.3863 23.97 46.9032 22.6763C46.4202 21.3826 46.1787 19.9491 46.1787 18.3807C46.1787 16.8124 46.4253 15.3489 46.9083 14.0402C47.3963 12.7266 48.0957 11.6027 49.0114 10.6737C49.9271 9.73967 51.029 9.02541 52.3271 8.52093C53.6202 8.01645 55.0542 7.76172 56.624 7.76172C58.1938 7.76172 59.663 8.01646 60.9611 8.52593C62.2592 9.0354 63.3712 9.76465 64.2919 10.7087C65.2177 11.6527 65.9221 12.7765 66.4051 14.0752C66.8881 15.3788 67.1246 16.8124 67.1246 18.3807ZM61.8416 18.3807C61.8416 16.2479 61.3686 14.5897 60.4227 13.4059C59.4768 12.2171 58.2089 11.6277 56.619 11.6277C55.5925 11.6277 54.6869 11.8924 53.902 12.4219C53.1171 12.9514 52.5133 13.7355 52.0907 14.7645C51.668 15.7984 51.4567 17.0022 51.4567 18.3807C51.4567 19.7593 51.663 20.9381 52.0806 21.957C52.4982 22.976 53.097 23.7602 53.8718 24.2996C54.6466 24.8391 55.5624 25.1138 56.619 25.1138C58.2139 25.1138 59.4819 24.5194 60.4227 23.3256C61.3686 22.1319 61.8416 20.4886 61.8416 18.3807Z" fill="#035AA9"/>
<path d="M94.712 19.6643C94.712 20.5584 94.4906 21.5224 94.0478 22.5613C93.6051 23.6052 92.9057 24.6242 91.9548 25.6282C91.0038 26.6271 89.7912 27.4413 88.312 28.0656C86.8327 28.69 85.112 29.0047 83.1497 29.0047C81.6604 29.0047 80.3019 28.8648 79.0843 28.5851C77.8617 28.3054 76.7548 27.8708 75.7585 27.2764C74.7623 26.6871 73.8466 25.9079 73.0114 24.9339C72.2667 24.0548 71.6327 23.0708 71.1044 21.9819C70.5761 20.893 70.1837 19.7293 69.917 18.4905C69.6554 17.2518 69.5195 15.9382 69.5195 14.5496C69.5195 12.2919 69.8516 10.274 70.5158 8.48588C71.1749 6.70273 72.1208 5.17431 73.3585 3.90562C74.5912 2.63694 76.0353 1.67293 77.6956 1.00862C79.351 0.344307 81.117 0.0146484 82.9937 0.0146484C85.2831 0.0146484 87.3158 0.469178 89.1019 1.37324C90.8881 2.27731 92.2566 3.39615 93.2076 4.72977C94.1585 6.06339 94.6365 7.32209 94.6365 8.50586C94.6365 9.15519 94.4051 9.7296 93.9422 10.2291C93.4793 10.7236 92.9208 10.9733 92.2617 10.9733C91.5321 10.9733 90.9787 10.7985 90.6164 10.4538C90.2491 10.1092 89.8415 9.51981 89.3937 8.67569C88.6491 7.28712 87.7686 6.2482 86.7623 5.55891C85.756 4.86963 84.5082 4.52498 83.034 4.52498C80.6843 4.52498 78.8076 5.40907 77.4189 7.18223C76.0252 8.9554 75.3309 11.4728 75.3309 14.7394C75.3309 16.9172 75.6378 18.7303 76.2516 20.1838C76.8705 21.6323 77.7409 22.7162 78.873 23.4254C80.0051 24.1397 81.3283 24.4993 82.8428 24.4993C84.4881 24.4993 85.8768 24.0947 87.0139 23.2856C88.151 22.4764 89.0114 21.2876 89.5849 19.7193C89.8315 18.98 90.1334 18.3806 90.4906 17.9111C90.8478 17.4466 91.4265 17.2119 92.2265 17.2119C92.9057 17.2119 93.4893 17.4466 93.9774 17.9211C94.4654 18.3906 94.707 18.98 94.707 19.6793" fill="#EC2125"/>
<path d="M111.799 26.0528C110.521 27.0318 109.298 27.771 108.106 28.2605C106.918 28.75 105.585 28.9948 104.111 28.9948C102.762 28.9948 101.575 28.7301 100.554 28.2006C99.5322 27.6712 98.7473 26.9569 98.1938 26.0478C97.6404 25.1388 97.3687 24.1598 97.3687 23.1009C97.3687 21.6724 97.8215 20.4586 98.7372 19.4447C99.6479 18.4407 100.901 17.7614 102.496 17.4168C102.828 17.3418 103.658 17.167 104.976 16.8973C106.299 16.6276 107.437 16.3828 108.377 16.1631C109.323 15.9383 110.345 15.6686 111.447 15.3489C111.381 13.9703 111.104 12.9614 110.611 12.317C110.118 11.6727 109.092 11.353 107.537 11.353C106.199 11.353 105.193 11.5328 104.518 11.9075C103.844 12.2771 103.266 12.8315 102.782 13.5707C102.299 14.31 101.962 14.7995 101.761 15.0342C101.565 15.269 101.137 15.3889 100.483 15.3889C99.8894 15.3889 99.3812 15.1991 98.9485 14.8244C98.5209 14.4498 98.3045 13.9653 98.3045 13.3809C98.3045 12.4619 98.6315 11.5678 99.2856 10.7037C99.9397 9.83461 100.961 9.12034 102.35 8.56092C103.738 7.99651 105.464 7.7168 107.537 7.7168C109.847 7.7168 111.663 7.98652 112.986 8.53095C114.31 9.07539 115.245 9.92951 115.789 11.1033C116.337 12.2771 116.609 13.8305 116.609 15.7735C116.609 16.9972 116.609 18.0361 116.599 18.8952C116.594 19.7493 116.584 20.6984 116.569 21.7423C116.569 22.7213 116.735 23.7452 117.062 24.8091C117.389 25.873 117.555 26.5623 117.555 26.867C117.555 27.4014 117.298 27.8909 116.795 28.3305C116.287 28.77 115.713 28.9898 115.069 28.9898C114.531 28.9898 113.998 28.74 113.469 28.2356C112.941 27.7311 112.382 27.0018 111.794 26.0428M111.452 18.4956C110.687 18.7754 109.56 19.0701 108.091 19.3847C106.616 19.6994 105.6 19.9292 105.037 20.074C104.473 20.2239 103.93 20.5086 103.416 20.9331C102.903 21.3627 102.647 21.9571 102.647 22.7213C102.647 23.4855 102.949 24.1848 103.552 24.7392C104.156 25.2936 104.946 25.5733 105.922 25.5733C106.964 25.5733 107.925 25.3436 108.805 24.894C109.686 24.4395 110.335 23.8601 110.742 23.1458C111.215 22.3517 111.452 21.053 111.452 19.2449V18.5006V18.4956Z" fill="#EC2125"/>
<path d="M137.902 22.1717C137.902 23.6102 137.549 24.8439 136.845 25.8679C136.136 26.8968 135.094 27.676 133.716 28.2055C132.332 28.7349 130.651 28.9996 128.674 28.9996C126.697 28.9996 125.167 28.7149 123.819 28.1405C122.47 27.5661 121.474 26.8519 120.835 25.9878C120.191 25.1236 119.874 24.2645 119.874 23.3954C119.874 22.821 120.08 22.3315 120.488 21.922C120.9 21.5124 121.419 21.3076 122.053 21.3076C122.601 21.3076 123.029 21.4425 123.326 21.7072C123.622 21.9769 123.904 22.3515 124.171 22.836C124.709 23.7651 125.358 24.4593 126.108 24.9189C126.858 25.3784 127.884 25.6081 129.182 25.6081C130.234 25.6081 131.099 25.3734 131.773 24.9089C132.448 24.4443 132.785 23.9149 132.785 23.3105C132.785 22.3915 132.433 21.7222 131.738 21.3026C131.039 20.883 129.882 20.4785 128.277 20.0988C126.465 19.6543 124.991 19.1848 123.854 18.6953C122.717 18.2058 121.811 17.5565 121.127 16.7523C120.448 15.9481 120.105 14.9592 120.105 13.7904C120.105 12.7415 120.422 11.7525 121.051 10.8234C121.68 9.8944 122.606 9.15017 123.834 8.59574C125.061 8.04132 126.541 7.7666 128.277 7.7666C129.64 7.7666 130.863 7.90646 131.949 8.18617C133.036 8.46588 133.937 8.84549 134.666 9.315C135.391 9.78951 135.944 10.309 136.322 10.8834C136.699 11.4578 136.89 12.0172 136.89 12.5666C136.89 13.166 136.689 13.6605 136.287 14.0401C135.879 14.4247 135.305 14.6145 134.561 14.6145C134.017 14.6145 133.56 14.4597 133.182 14.155C132.805 13.8503 132.372 13.3908 131.884 12.7764C131.482 12.2669 131.014 11.8574 130.48 11.5527C129.937 11.248 129.207 11.0932 128.282 11.0932C127.356 11.0932 126.541 11.293 125.912 11.6975C125.283 12.0971 124.966 12.6016 124.966 13.201C124.966 13.7504 125.197 14.1999 125.66 14.5496C126.123 14.8992 126.742 15.1889 127.527 15.4187C128.312 15.6484 129.388 15.9282 130.762 16.2628C132.392 16.6574 133.726 17.1269 134.762 17.6763C135.794 18.2258 136.578 18.8701 137.112 19.6193C137.645 20.3636 137.912 21.2177 137.912 22.1717" fill="#EC2125"/>
<path d="M146.511 3.17671V10.9237C147.175 10.1595 147.829 9.55012 148.468 9.10558C149.102 8.66104 149.807 8.32639 150.576 8.10162C151.346 7.87685 152.176 7.76697 153.062 7.76697C154.395 7.76697 155.583 8.04668 156.619 8.6061C157.651 9.16552 158.466 9.98467 159.054 11.0536C159.427 11.6779 159.678 12.3772 159.804 13.1514C159.93 13.9256 159.995 14.8147 159.995 15.8186V25.8233C159.995 26.8722 159.754 27.6614 159.276 28.1958C158.793 28.7303 158.154 29 157.359 29C155.623 29 154.757 27.9411 154.757 25.8233V17.0074C154.757 15.3391 154.506 14.0505 154.008 13.1564C153.51 12.2623 152.554 11.8078 151.155 11.8078C150.219 11.8078 149.374 12.0725 148.619 12.602C147.869 13.1314 147.306 13.8557 146.934 14.7747C146.652 15.5539 146.511 16.9375 146.511 18.9254V25.8283C146.511 26.8622 146.274 27.6514 145.807 28.1908C145.339 28.7303 144.685 29 143.849 29C142.118 29 141.248 27.9411 141.248 25.8233V3.17671C141.248 2.11781 141.474 1.32363 141.932 0.794178C142.39 0.264726 143.029 0 143.849 0C144.669 0 145.334 0.269721 145.807 0.804168C146.274 1.33862 146.511 2.13279 146.511 3.17671Z" fill="#EC2125"/>
</g>
<path d="M128.092 39.2665C128.024 38.9291 127.92 38.604 127.786 38.2966C127.635 37.9499 127.444 37.6248 127.219 37.3266C127.082 37.143 126.93 36.9696 126.768 36.8066C126.606 36.6446 126.432 36.4939 126.248 36.3557C125.95 36.1307 125.624 35.9398 125.278 35.7892C124.97 35.6551 124.646 35.5508 124.308 35.4827C123.995 35.4188 123.671 35.3857 123.338 35.3857C123.006 35.3857 122.681 35.4188 122.369 35.4827C122.031 35.5508 121.706 35.6551 121.399 35.7892C121.052 35.9398 120.727 36.1307 120.429 36.3557C120.245 36.4939 120.071 36.6446 119.909 36.8066C119.747 36.9686 119.596 37.143 119.458 37.3266C119.233 37.6248 119.042 37.9509 118.891 38.2966C118.757 38.6051 118.653 38.9301 118.585 39.2665C118.521 39.5802 118.488 39.9042 118.488 40.2364C118.488 40.5687 118.521 40.8937 118.585 41.2063C118.653 41.5437 118.757 41.8688 118.891 42.1763C119.042 42.523 119.233 42.848 119.458 43.1462C119.733 43.5135 120.06 43.8406 120.428 44.1161C120.726 44.341 121.052 44.5319 121.398 44.6826C121.706 44.8167 122.03 44.9209 122.368 44.989C122.681 45.053 123.005 45.086 123.337 45.086C123.67 45.086 123.995 45.053 124.307 44.989C124.645 44.9209 124.97 44.8167 125.277 44.6826C125.624 44.5319 125.949 44.341 126.247 44.1161C126.431 43.9778 126.605 43.8272 126.767 43.6652C126.929 43.5032 127.08 43.3288 127.218 43.1452C127.443 42.847 127.634 42.5209 127.785 42.1752C127.919 41.8667 128.023 41.5417 128.091 41.2053C128.155 40.8916 128.188 40.5676 128.188 40.2354C128.188 39.9031 128.155 39.5781 128.091 39.2654L128.092 39.2665ZM126.083 41.2074C125.955 41.5685 125.758 41.8977 125.507 42.1773C125.471 42.2175 125.434 42.2567 125.396 42.2949C125.358 42.3331 125.319 42.3702 125.278 42.4053C124.999 42.6561 124.67 42.8531 124.308 42.9811C124.005 43.0884 123.679 43.1472 123.338 43.1472C122.998 43.1472 122.672 43.0884 122.369 42.9811C122.007 42.8531 121.678 42.6561 121.399 42.4053C121.318 42.3331 121.242 42.2567 121.17 42.1763C120.919 41.8966 120.722 41.5675 120.594 41.2063C120.486 40.903 120.428 40.5759 120.428 40.2364C120.428 39.8969 120.486 39.5698 120.594 39.2665C120.722 38.9043 120.919 38.5762 121.17 38.2966C121.206 38.2563 121.243 38.2171 121.281 38.1789C121.319 38.1407 121.358 38.1036 121.399 38.0675C121.678 37.8167 122.007 37.6197 122.369 37.4917C122.672 37.3844 122.999 37.3256 123.338 37.3256C123.678 37.3256 124.005 37.3844 124.308 37.4917C124.67 37.6197 124.999 37.8167 125.278 38.0675C125.319 38.1036 125.358 38.1397 125.396 38.1779C125.434 38.2161 125.471 38.2553 125.507 38.2955C125.758 38.5751 125.955 38.9043 126.083 39.2654C126.19 39.5688 126.249 39.8949 126.249 40.2354C126.249 40.5759 126.19 40.9019 126.083 41.2053V41.2074Z" fill="#035AA9"/>
<path d="M89.3755 40.2373C89.3755 40.5696 89.3425 40.8946 89.2785 41.2073H85.4948L84.5249 40.2373L83.5549 39.2674H87.2706C87.1426 38.9052 86.9456 38.5771 86.6948 38.2975C86.6587 38.2572 86.6216 38.218 86.5834 38.1798C86.5452 38.1417 86.506 38.1045 86.4658 38.0684C86.1861 37.8177 85.857 37.6206 85.4958 37.4926C85.1925 37.3853 84.8654 37.3265 84.5259 37.3265C84.1864 37.3265 83.8593 37.3853 83.556 37.4926C83.1938 37.6206 82.8657 37.8177 82.586 38.0684C82.5458 38.1045 82.5066 38.1417 82.4684 38.1798C82.4302 38.218 82.3931 38.2572 82.357 38.2975C82.1062 38.5771 81.9092 38.9063 81.7812 39.2674C81.6739 39.5708 81.6151 39.8968 81.6151 40.2373C81.6151 40.5778 81.6739 40.9039 81.7812 41.2073C81.9092 41.5684 82.1062 41.8976 82.357 42.1772C82.4292 42.2577 82.5056 42.334 82.586 42.4062C82.8657 42.657 83.1948 42.8541 83.556 42.982C83.8593 43.0893 84.1854 43.1481 84.5259 43.1481C84.8664 43.1481 85.1925 43.0893 85.4958 42.982C85.857 42.8541 86.1861 42.657 86.4658 42.4062C86.506 42.3701 86.5452 42.333 86.5834 42.2948L87.9557 43.6672C87.7937 43.8292 87.6193 43.9798 87.4357 44.1181C87.1375 44.343 86.8114 44.5339 86.4658 44.6845C86.1572 44.8187 85.8322 44.9229 85.4958 44.991C85.1822 45.055 84.8582 45.088 84.5259 45.088C84.1936 45.088 83.8686 45.055 83.556 44.991C83.2186 44.9229 82.8935 44.8187 82.586 44.6845C82.2394 44.5339 81.9143 44.343 81.6161 44.1181C81.2488 43.8426 80.9217 43.5155 80.6462 43.1481C80.4213 42.8499 80.2304 42.5239 80.0797 42.1782C79.9456 41.8697 79.8414 41.5447 79.7733 41.2083C79.7093 40.8946 79.6763 40.5706 79.6763 40.2384C79.6763 39.9061 79.7093 39.5811 79.7733 39.2684C79.8414 38.931 79.9456 38.606 80.0797 38.2985C80.2304 37.9518 80.4213 37.6268 80.6462 37.3286C80.7834 37.1449 80.9351 36.9716 81.0971 36.8085C81.2591 36.6465 81.4335 36.4959 81.6172 36.3576C81.9154 36.1327 82.2414 35.9418 82.5871 35.7911C82.8956 35.657 83.2206 35.5528 83.557 35.4847C83.8707 35.4207 84.1947 35.3877 84.5269 35.3877C84.8592 35.3877 85.1842 35.4207 85.4969 35.4847C85.8343 35.5528 86.1593 35.657 86.4668 35.7911C86.8135 35.9418 87.1385 36.1327 87.4367 36.3576C87.6204 36.4949 87.7937 36.6465 87.9568 36.8085C88.1188 36.9705 88.2694 37.1449 88.4077 37.3286C88.6326 37.6268 88.8235 37.9528 88.9741 38.2985C89.1083 38.607 89.2125 38.9321 89.2806 39.2684C89.3446 39.5821 89.3776 39.9061 89.3776 40.2384L89.3755 40.2373Z" fill="#08081B"/>
<path d="M110.723 40.2373C110.723 40.5696 110.69 40.8946 110.626 41.2073H106.842L105.873 40.2373L104.903 39.2674H108.618C108.49 38.9052 108.293 38.5771 108.042 38.2975C108.006 38.2572 107.969 38.218 107.931 38.1798C107.893 38.1417 107.854 38.1045 107.813 38.0684C107.534 37.8177 107.205 37.6206 106.843 37.4926C106.54 37.3853 106.213 37.3265 105.874 37.3265C105.534 37.3265 105.207 37.3853 104.904 37.4926C104.541 37.6206 104.213 37.8177 103.934 38.0684C103.893 38.1045 103.854 38.1417 103.816 38.1798C103.778 38.218 103.741 38.2572 103.705 38.2975C103.454 38.5771 103.257 38.9063 103.129 39.2674C103.022 39.5708 102.963 39.8968 102.963 40.2373C102.963 40.5778 103.022 40.9039 103.129 41.2073C103.257 41.5684 103.454 41.8976 103.705 42.1772C103.777 42.2577 103.853 42.334 103.934 42.4062C104.213 42.657 104.542 42.8541 104.904 42.982C105.207 43.0893 105.533 43.1481 105.874 43.1481C106.214 43.1481 106.54 43.0893 106.843 42.982C107.205 42.8541 107.534 42.657 107.813 42.4062C107.854 42.3701 107.893 42.333 107.931 42.2948L109.303 43.6672C109.141 43.8292 108.967 43.9798 108.783 44.1181C108.485 44.343 108.159 44.5339 107.813 44.6845C107.505 44.8187 107.18 44.9229 106.843 44.991C106.53 45.055 106.206 45.088 105.874 45.088C105.541 45.088 105.216 45.055 104.904 44.991C104.566 44.9229 104.241 44.8187 103.934 44.6845C103.587 44.5339 103.262 44.343 102.964 44.1181C102.596 43.8426 102.269 43.5155 101.994 43.1481C101.769 42.8499 101.578 42.5239 101.427 42.1782C101.293 41.8697 101.189 41.5447 101.121 41.2083C101.057 40.8946 101.024 40.5706 101.024 40.2384C101.024 39.9061 101.057 39.5811 101.121 39.2684C101.189 38.931 101.293 38.606 101.427 38.2985C101.578 37.9518 101.769 37.6268 101.994 37.3286C102.131 37.1449 102.283 36.9716 102.445 36.8085C102.607 36.6465 102.781 36.4959 102.965 36.3576C103.263 36.1327 103.589 35.9418 103.935 35.7911C104.243 35.657 104.568 35.5528 104.905 35.4847C105.218 35.4207 105.542 35.3877 105.875 35.3877C106.207 35.3877 106.532 35.4207 106.845 35.4847C107.182 35.5528 107.507 35.657 107.814 35.7911C108.161 35.9418 108.486 36.1327 108.784 36.3576C108.968 36.4949 109.141 36.6465 109.304 36.8085C109.466 36.9705 109.617 37.1449 109.755 37.3286C109.98 37.6268 110.171 37.9528 110.322 38.2985C110.456 38.607 110.56 38.9321 110.628 39.2684C110.692 39.5821 110.725 39.9061 110.725 40.2384L110.723 40.2373Z" fill="#08081B"/>
<path d="M149.537 40.2373C149.537 40.5696 149.504 40.8946 149.44 41.2073H145.656L144.686 40.2373L143.716 39.2674H147.432C147.304 38.9052 147.107 38.5771 146.856 38.2975C146.82 38.2572 146.783 38.218 146.745 38.1798C146.706 38.1417 146.667 38.1045 146.627 38.0684C146.347 37.8177 146.018 37.6206 145.657 37.4926C145.354 37.3853 145.027 37.3265 144.687 37.3265C144.348 37.3265 144.02 37.3853 143.717 37.4926C143.355 37.6206 143.027 37.8177 142.747 38.0684C142.707 38.1045 142.668 38.1417 142.63 38.1798C142.591 38.218 142.554 38.2572 142.518 38.2975C142.267 38.5771 142.07 38.9063 141.942 39.2674C141.835 39.5708 141.776 39.8968 141.776 40.2373C141.776 40.5778 141.835 40.9039 141.942 41.2073C142.07 41.5684 142.267 41.8976 142.518 42.1772C142.59 42.2577 142.667 42.334 142.747 42.4062C143.027 42.657 143.356 42.8541 143.717 42.982C144.02 43.0893 144.347 43.1481 144.687 43.1481C145.028 43.1481 145.354 43.0893 145.657 42.982C146.018 42.8541 146.347 42.657 146.627 42.4062C146.667 42.3701 146.706 42.333 146.745 42.2948L148.117 43.6672C147.955 43.8292 147.78 43.9798 147.597 44.1181C147.299 44.343 146.973 44.5339 146.627 44.6845C146.318 44.8187 145.993 44.9229 145.657 44.991C145.343 45.055 145.019 45.088 144.687 45.088C144.355 45.088 144.03 45.055 143.717 44.991C143.38 44.9229 143.055 44.8187 142.747 44.6845C142.4 44.5339 142.075 44.343 141.777 44.1181C141.41 43.8426 141.083 43.5155 140.807 43.1481C140.582 42.8499 140.392 42.5239 140.241 42.1782C140.107 41.8697 140.003 41.5447 139.934 41.2083C139.87 40.8946 139.837 40.5706 139.837 40.2384C139.837 39.9061 139.87 39.5811 139.934 39.2684C140.003 38.931 140.107 38.606 140.241 38.2985C140.392 37.9518 140.582 37.6268 140.807 37.3286C140.945 37.1449 141.096 36.9716 141.258 36.8085C141.42 36.6465 141.595 36.4959 141.778 36.3576C142.076 36.1327 142.403 35.9418 142.748 35.7911C143.057 35.657 143.382 35.5528 143.718 35.4847C144.032 35.4207 144.356 35.3877 144.688 35.3877C145.02 35.3877 145.345 35.4207 145.658 35.4847C145.995 35.5528 146.32 35.657 146.628 35.7911C146.975 35.9418 147.3 36.1327 147.598 36.3576C147.782 36.4949 147.955 36.6465 148.118 36.8085C148.28 36.9705 148.431 37.1449 148.569 37.3286C148.794 37.6268 148.985 37.9528 149.135 38.2985C149.269 38.607 149.374 38.9321 149.442 39.2684C149.506 39.5821 149.539 39.9061 149.539 40.2384L149.537 40.2373Z" fill="#08081B"/>
<path d="M76.7604 32.4737V36.3555C76.4622 36.1305 76.1372 35.9396 75.7905 35.789C75.482 35.6548 75.158 35.5506 74.8206 35.4825C74.5069 35.4186 74.1829 35.3855 73.8507 35.3855C73.5184 35.3855 73.1934 35.4186 72.8807 35.4825C72.5433 35.5506 72.2183 35.6548 71.9108 35.789C71.5641 35.9396 71.2391 36.1305 70.9409 36.3555C70.7572 36.4927 70.5839 36.6444 70.4208 36.8064C70.2588 36.9684 70.1082 37.1427 69.9699 37.3264C69.745 37.6246 69.5541 37.9507 69.4035 38.2963C69.2693 38.6049 69.1651 38.9299 69.097 39.2663C69.033 39.5799 69 39.9039 69 40.2362C69 40.5684 69.033 40.8935 69.097 41.2061C69.1651 41.5435 69.2693 41.8686 69.4035 42.176C69.5541 42.5227 69.745 42.8478 69.9699 43.146C70.2454 43.5133 70.5725 43.8404 70.9399 44.1159C71.2381 44.3408 71.5641 44.5317 71.9098 44.6824C72.2183 44.8165 72.5433 44.9207 72.8797 44.9888C73.1934 45.0528 73.5174 45.0858 73.8496 45.0858C74.1819 45.0858 74.5069 45.0528 74.8196 44.9888C75.157 44.9207 75.482 44.8165 75.7895 44.6824C76.1362 44.5317 76.4612 44.3408 76.7594 44.1159C76.9431 43.9776 77.1164 43.827 77.2784 43.665C77.4404 43.503 77.5911 43.3286 77.7293 43.1449C77.9543 42.8467 78.1452 42.5207 78.2948 42.175C78.43 41.8665 78.5331 41.5415 78.6023 41.2051C78.6662 40.8914 78.6993 40.5674 78.6993 40.2352V32.4727H76.7584L76.7604 32.4737ZM76.5954 41.2072C76.4674 41.5683 76.2703 41.8975 76.0196 42.1771C75.9835 42.2173 75.9463 42.2565 75.9081 42.2947C75.87 42.3329 75.8308 42.37 75.7905 42.4061C75.5109 42.6569 75.1817 42.854 74.8206 42.9819C74.5172 43.0892 74.1901 43.148 73.8507 43.148C73.5112 43.148 73.1841 43.0892 72.8807 42.9819C72.5186 42.854 72.1904 42.6569 71.9108 42.4061C71.8303 42.3339 71.754 42.2576 71.6817 42.1771C71.431 41.8975 71.2339 41.5683 71.106 41.2072C70.9987 40.9038 70.9399 40.5767 70.9399 40.2372C70.9399 39.8978 70.9987 39.5707 71.106 39.2673C71.2339 38.9051 71.431 38.577 71.6817 38.2974C71.7179 38.2571 71.755 38.2179 71.7932 38.1797C71.8314 38.1416 71.8706 38.1044 71.9108 38.0683C72.1904 37.8176 72.5196 37.6205 72.8807 37.4925C73.1841 37.3852 73.5102 37.3264 73.8507 37.3264C74.1912 37.3264 74.5172 37.3852 74.8206 37.4925C75.1817 37.6205 75.5109 37.8176 75.7905 38.0683C75.8308 38.1044 75.87 38.1416 75.9081 38.1797C75.9463 38.2179 75.9835 38.2571 76.0196 38.2974C76.2703 38.577 76.4674 38.9062 76.5954 39.2673C76.7027 39.5707 76.7615 39.8967 76.7615 40.2372C76.7615 40.5777 76.7027 40.9038 76.5954 41.2072Z" fill="#08081B"/>
<path d="M131.101 47.9998V44.1181C131.399 44.343 131.724 44.5339 132.071 44.6845C132.379 44.8187 132.703 44.9229 133.041 44.991C133.354 45.055 133.678 45.088 134.011 45.088C134.343 45.088 134.668 45.055 134.981 44.991C135.318 44.9229 135.643 44.8187 135.951 44.6845C136.297 44.5339 136.622 44.343 136.92 44.1181C137.104 43.9808 137.278 43.8292 137.441 43.6672C137.603 43.5052 137.753 43.3308 137.891 43.1471C138.116 42.8489 138.307 42.5228 138.458 42.1772C138.592 41.8687 138.696 41.5436 138.764 41.2073C138.828 40.8936 138.861 40.5696 138.861 40.2373C138.861 39.9051 138.828 39.58 138.764 39.2674C138.696 38.93 138.592 38.605 138.458 38.2975C138.307 37.9508 138.116 37.6258 137.891 37.3275C137.616 36.9602 137.289 36.6331 136.922 36.3576C136.623 36.1327 136.297 35.9418 135.952 35.7911C135.643 35.657 135.318 35.5528 134.982 35.4847C134.668 35.4207 134.344 35.3877 134.012 35.3877C133.679 35.3877 133.354 35.4207 133.042 35.4847C132.704 35.5528 132.379 35.657 132.072 35.7911C131.725 35.9418 131.4 36.1327 131.102 36.3576C130.918 36.4959 130.745 36.6465 130.583 36.8085C130.421 36.9705 130.27 37.1449 130.132 37.3286C129.907 37.6268 129.716 37.9528 129.567 38.2985C129.431 38.607 129.328 38.9321 129.259 39.2684C129.195 39.5821 129.162 39.9061 129.162 40.2384V48.0009H131.103L131.101 47.9998ZM131.266 39.2664C131.394 38.9052 131.591 38.5761 131.842 38.2964C131.878 38.2562 131.915 38.217 131.953 38.1788C131.991 38.1406 132.031 38.1035 132.071 38.0674C132.35 37.8166 132.68 37.6196 133.041 37.4916C133.344 37.3843 133.671 37.3255 134.011 37.3255C134.35 37.3255 134.677 37.3843 134.981 37.4916C135.343 37.6196 135.671 37.8166 135.951 38.0674C136.031 38.1396 136.107 38.216 136.18 38.2964C136.43 38.5761 136.627 38.9052 136.755 39.2664C136.863 39.5697 136.922 39.8968 136.922 40.2363C136.922 40.5758 136.863 40.9029 136.755 41.2062C136.627 41.5684 136.43 41.8965 136.18 42.1761C136.144 42.2164 136.106 42.2556 136.068 42.2938C136.03 42.332 135.991 42.3691 135.951 42.4052C135.671 42.656 135.342 42.853 134.981 42.981C134.677 43.0883 134.351 43.1471 134.011 43.1471C133.67 43.1471 133.344 43.0883 133.041 42.981C132.68 42.853 132.35 42.656 132.071 42.4052C132.031 42.3691 131.991 42.332 131.953 42.2938C131.915 42.2556 131.878 42.2164 131.842 42.1761C131.591 41.8965 131.394 41.5674 131.266 41.2062C131.159 40.9029 131.1 40.5768 131.1 40.2363C131.1 39.8958 131.159 39.5697 131.266 39.2664Z" fill="#08081B"/>
<path d="M100.049 35.3857L99.6611 36.3557L99.2731 37.3256L98.8852 38.2966L98.4962 39.2665L98.1082 40.2374L97.7202 41.2074L97.3323 42.1773L96.9443 43.1482L96.5563 44.1182L96.1684 45.0891H94.2275L93.8395 44.1182L93.4505 43.1482L93.0625 42.1773L92.6746 41.2074L92.2866 40.2374L91.8986 39.2665L91.5106 38.2966L91.1227 37.3256L90.7337 36.3557L90.3457 35.3857H92.2866L92.6746 36.3557L93.0625 37.3256L93.4505 38.2966L93.8395 39.2665L94.2275 40.2374L94.6154 41.2074L95.0034 42.1773L95.1974 42.6633L95.3914 42.1773L95.7804 41.2074L96.1684 40.2374L96.5563 39.2665L96.9443 38.2966L97.3323 37.3256L97.7202 36.3557L98.1082 35.3857H100.049Z" fill="#08081B"/>
<path d="M117.516 35.3857L117.128 36.3557L116.739 37.3256L116.351 38.2966L115.963 39.2665L115.575 40.2374L115.187 41.2074L114.798 42.1773L114.41 43.1482L114.022 44.1182L113.634 45.0891H111.693L112.081 44.1182L112.47 43.1482L112.858 42.1773L113.246 41.2074L113.634 40.2374L114.022 39.2665L114.41 38.2966L114.798 37.3256L115.187 36.3557L115.575 35.3857H117.516Z" fill="#EC2125"/>
<path d="M160.114 39.2665H158.105C157.977 38.9044 157.78 38.5762 157.529 38.2966C157.493 38.2564 157.456 38.2172 157.418 38.179C157.38 38.1408 157.341 38.1037 157.3 38.0675C157.021 37.8168 156.692 37.6197 156.33 37.4918C156.027 37.3845 155.7 37.3256 155.36 37.3256C155.021 37.3256 154.694 37.3845 154.391 37.4918C154.029 37.6197 153.7 37.8168 153.421 38.0675C153.38 38.1037 153.341 38.1398 153.303 38.1779C153.265 38.2161 153.228 38.2553 153.192 38.2956C152.941 38.5752 152.744 38.9044 152.616 39.2655C152.508 39.5689 152.45 39.8949 152.45 40.2354V45.0871H150.509V40.2354C150.509 39.9032 150.542 39.5782 150.606 39.2655C150.674 38.9281 150.778 38.6031 150.912 38.2956C151.063 37.9489 151.254 37.6239 151.479 37.3256C151.616 37.142 151.768 36.9686 151.93 36.8056C152.092 36.6436 152.266 36.493 152.45 36.3547C152.748 36.1298 153.074 35.9389 153.42 35.7882C153.728 35.6541 154.052 35.5499 154.39 35.4818C154.703 35.4178 155.027 35.3848 155.359 35.3848C155.692 35.3848 156.017 35.4178 156.329 35.4818C156.667 35.5499 156.992 35.6541 157.299 35.7882C157.646 35.9389 157.971 36.1298 158.269 36.3547C158.453 36.493 158.627 36.6436 158.789 36.8056C158.951 36.9676 159.102 37.142 159.24 37.3256C159.465 37.6239 159.656 37.9499 159.807 38.2956C159.941 38.6041 160.045 38.9291 160.113 39.2655L160.114 39.2665Z" fill="#08081B"/>
</g>
<defs>
<clipPath id="clip0_1478_10577">
<rect width="160.296" height="48" fill="white"/>
</clipPath>
<clipPath id="clip1_1478_10577">
<rect width="160" height="29" fill="white"/>
</clipPath>
</defs>
</svg>
