<svg width="161" height="48" viewBox="0 0 161 48" fill="none" xmlns="http://www.w3.org/2000/svg">
<g clip-path="url(#clip0_1974_53658)">
<g clip-path="url(#clip1_1974_53658)">
<path d="M18.6105 4.85995H5.72496V11.7478H17.5941C18.4696 11.7478 19.1237 11.9376 19.5514 12.3272C19.9841 12.7168 20.1954 13.2313 20.1954 13.8656C20.1954 14.5 19.9841 15.0244 19.5564 15.424C19.1338 15.8286 18.4797 16.0284 17.5891 16.0284H5.72496V24.0051H19.0583C19.9589 24.0051 20.6382 24.2099 21.091 24.6245C21.5489 25.0391 21.7753 25.5935 21.7753 26.2778C21.7753 26.9621 21.5489 27.4815 21.091 27.8911C20.6382 28.3057 19.9589 28.5105 19.0583 28.5105H3.50609C2.25829 28.5105 1.36269 28.2358 0.814266 27.6913C0.27087 27.1419 -0.00585938 26.2578 -0.00585938 25.0341V3.96088C-0.00585938 3.14173 0.114895 2.47742 0.361436 1.95795C0.607977 1.44348 0.985336 1.06388 1.50861 0.82912C2.02685 0.594363 2.69603 0.474487 3.50609 0.474487H18.6105C19.5212 0.474487 20.2004 0.674281 20.6432 1.07886C21.086 1.47845 21.3073 2.0079 21.3073 2.65723C21.3073 3.30656 21.086 3.85099 20.6432 4.25558C20.2004 4.66016 19.5212 4.85995 18.6105 4.85995Z" fill="white"/>
<path d="M43.8335 22.5317C43.8335 23.1811 43.6373 23.8753 43.2448 24.6146C42.8524 25.3588 42.2536 26.0631 41.4536 26.7324C40.6486 27.4017 39.6373 27.9411 38.4197 28.3457C37.2021 28.7553 35.8234 28.9601 34.2939 28.9601C31.0436 28.9601 28.5077 28.0161 26.6863 26.138C24.8599 24.255 23.9492 21.7326 23.9492 18.5708C23.9492 16.428 24.3668 14.535 25.202 12.8917C26.0373 11.2484 27.2448 9.97473 28.8247 9.07566C30.4096 8.17659 32.2964 7.72705 34.4901 7.72705C35.8536 7.72705 37.1014 7.92684 38.2385 8.32144C39.3756 8.71603 40.3366 9.2255 41.1266 9.84985C41.9165 10.4742 42.5203 11.1435 42.9379 11.8478C43.3555 12.5571 43.5668 13.2164 43.5668 13.8307C43.5668 14.4451 43.3304 14.9845 42.8624 15.4191C42.3945 15.8536 41.826 16.0684 41.1568 16.0684C40.719 16.0684 40.3568 15.9585 40.07 15.7338C39.7832 15.509 39.4561 15.1494 39.0989 14.6549C38.4549 13.6859 37.7857 12.9616 37.0863 12.4771C36.387 11.9926 35.4964 11.7529 34.4146 11.7529C32.8599 11.7529 31.6071 12.3523 30.6561 13.561C29.7052 14.7648 29.2322 16.4131 29.2322 18.5059C29.2322 19.4899 29.353 20.389 29.5995 21.2131C29.841 22.0372 30.1932 22.7365 30.6561 23.3159C31.119 23.9003 31.6775 24.3399 32.3316 24.6396C32.9857 24.9392 33.7052 25.0891 34.4901 25.0891C35.5417 25.0891 36.4473 24.8443 37.197 24.3598C37.9467 23.8753 38.6109 23.1361 39.1895 22.1421C39.5115 21.5527 39.8587 21.0932 40.231 20.7636C40.6033 20.4339 41.0561 20.2641 41.5995 20.2641C42.2385 20.2641 42.7769 20.5088 43.1995 20.9933C43.6222 21.4778 43.8335 21.9973 43.8335 22.5417" fill="white"/>
<path d="M67.1236 18.381C67.1236 19.9344 66.8821 21.3679 66.3941 22.6815C65.906 23.9952 65.1966 25.124 64.2708 26.068C63.345 27.012 62.2431 27.7363 60.9601 28.2408C59.6771 28.7453 58.2281 28.995 56.623 28.995C55.018 28.995 53.5991 28.7403 52.3262 28.2308C51.0532 27.7213 49.9513 26.9921 49.0205 26.043C48.0897 25.094 47.3853 23.9702 46.9023 22.6765C46.4192 21.3829 46.1777 19.9494 46.1777 18.381C46.1777 16.8126 46.4243 15.3491 46.9073 14.0405C47.3953 12.7268 48.0947 11.603 49.0104 10.674C49.9262 9.73992 51.028 9.02566 52.3262 8.52118C53.6192 8.0167 55.0532 7.76196 56.623 7.76196C58.1928 7.76196 59.662 8.0167 60.9601 8.52617C62.2582 9.03565 63.3702 9.76489 64.2909 10.7089C65.2167 11.6529 65.9211 12.7768 66.4041 14.0754C66.8872 15.3791 67.1236 16.8126 67.1236 18.381ZM61.8406 18.381C61.8406 16.2482 61.3677 14.5899 60.4218 13.4061C59.4758 12.2174 58.2079 11.628 56.618 11.628C55.5916 11.628 54.6859 11.8927 53.901 12.4221C53.1161 12.9516 52.5123 13.7358 52.0897 14.7647C51.667 15.7986 51.4557 17.0024 51.4557 18.381C51.4557 19.7596 51.662 20.9383 52.0796 21.9573C52.4972 22.9762 53.096 23.7604 53.8708 24.2999C54.6457 24.8393 55.5614 25.114 56.618 25.114C58.213 25.114 59.4809 24.5196 60.4218 23.3259C61.3677 22.1321 61.8406 20.4888 61.8406 18.381Z" fill="white"/>
<path d="M94.712 19.6647C94.712 20.5588 94.4906 21.5228 94.0478 22.5617C93.6051 23.6056 92.9057 24.6246 91.9548 25.6285C91.0038 26.6275 89.7912 27.4416 88.312 28.066C86.8327 28.6903 85.112 29.005 83.1497 29.005C81.6604 29.005 80.3019 28.8652 79.0843 28.5855C77.8617 28.3057 76.7548 27.8712 75.7585 27.2768C74.7623 26.6874 73.8466 25.9082 73.0114 24.9342C72.2667 24.0551 71.6327 23.0712 71.1044 21.9823C70.5761 20.8934 70.1837 19.7296 69.917 18.4909C69.6554 17.2522 69.5195 15.9385 69.5195 14.55C69.5195 12.2923 69.8516 10.2744 70.5158 8.48625C71.1749 6.70309 72.1208 5.17468 73.3585 3.90599C74.5912 2.6373 76.0353 1.6733 77.6956 1.00899C79.351 0.344674 81.117 0.0150146 82.9937 0.0150146C85.2831 0.0150146 87.3158 0.469544 89.1019 1.37361C90.8881 2.27767 92.2566 3.39652 93.2076 4.73014C94.1585 6.06376 94.6365 7.32245 94.6365 8.50623C94.6365 9.15556 94.4051 9.72996 93.9422 10.2294C93.4793 10.7239 92.9208 10.9737 92.2617 10.9737C91.5321 10.9737 90.9787 10.7989 90.6164 10.4542C90.2491 10.1096 89.8415 9.52018 89.3937 8.67605C88.6491 7.28749 87.7686 6.24857 86.7623 5.55928C85.756 4.86999 84.5082 4.52535 83.034 4.52535C80.6843 4.52535 78.8076 5.40943 77.4189 7.1826C76.0252 8.95576 75.3309 11.4732 75.3309 14.7398C75.3309 16.9175 75.6378 18.7307 76.2516 20.1841C76.8705 21.6327 77.7409 22.7165 78.873 23.4258C80.0051 24.1401 81.3283 24.4997 82.8428 24.4997C84.4881 24.4997 85.8768 24.0951 87.0139 23.2859C88.151 22.4768 89.0114 21.288 89.5849 19.7196C89.8315 18.9804 90.1334 18.381 90.4906 17.9115C90.8478 17.447 91.4265 17.2122 92.2265 17.2122C92.9057 17.2122 93.4893 17.447 93.9774 17.9215C94.4654 18.391 94.707 18.9804 94.707 19.6797" fill="white"/>
<path d="M111.799 26.0531C110.521 27.0321 109.299 27.7713 108.106 28.2608C106.919 28.7503 105.585 28.995 104.111 28.995C102.763 28.995 101.575 28.7303 100.554 28.2008C99.5327 27.6714 98.7478 26.9571 98.1943 26.0481C97.6408 25.139 97.3691 24.16 97.3691 23.1011C97.3691 21.6726 97.822 20.4589 98.7377 19.4449C99.6484 18.4409 100.901 17.7616 102.496 17.417C102.828 17.3421 103.658 17.1673 104.977 16.8975C106.3 16.6278 107.437 16.3831 108.378 16.1633C109.324 15.9385 110.345 15.6688 111.447 15.3491C111.382 13.9706 111.105 12.9616 110.612 12.3173C110.119 11.6729 109.092 11.3533 107.538 11.3533C106.199 11.3533 105.193 11.5331 104.519 11.9077C103.845 12.2773 103.266 12.8317 102.783 13.571C102.3 14.3102 101.963 14.7997 101.762 15.0345C101.565 15.2692 101.138 15.3891 100.484 15.3891C99.8899 15.3891 99.3817 15.1993 98.949 14.8247C98.5213 14.4501 98.305 13.9656 98.305 13.3812C98.305 12.4621 98.632 11.5681 99.2861 10.704C99.9402 9.83485 100.962 9.12059 102.35 8.56117C103.739 7.99675 105.465 7.71704 107.538 7.71704C109.847 7.71704 111.663 7.98676 112.987 8.5312C114.31 9.07564 115.246 9.92975 115.789 11.1035C116.338 12.2773 116.609 13.8307 116.609 15.7737C116.609 16.9974 116.609 18.0364 116.599 18.8955C116.594 19.7496 116.584 20.6986 116.569 21.7425C116.569 22.7215 116.735 23.7455 117.062 24.8094C117.389 25.8733 117.555 26.5625 117.555 26.8672C117.555 27.4017 117.299 27.8912 116.796 28.3307C116.287 28.7703 115.714 28.99 115.07 28.99C114.531 28.99 113.998 28.7403 113.47 28.2358C112.941 27.7313 112.383 27.0021 111.794 26.0431M111.452 18.4959C110.687 18.7756 109.56 19.0703 108.091 19.385C106.617 19.6996 105.601 19.9294 105.037 20.0743C104.474 20.2241 103.93 20.5088 103.417 20.9334C102.904 21.3629 102.647 21.9573 102.647 22.7215C102.647 23.4857 102.949 24.185 103.553 24.7394C104.157 25.2939 104.946 25.5736 105.923 25.5736C106.964 25.5736 107.925 25.3438 108.806 24.8943C109.686 24.4397 110.335 23.8603 110.743 23.1461C111.216 22.3519 111.452 21.0532 111.452 19.2451V18.5009V18.4959Z" fill="white"/>
<path d="M137.903 22.1721C137.903 23.6106 137.55 24.8443 136.846 25.8682C136.137 26.8972 135.095 27.6764 133.717 28.2058C132.333 28.7353 130.652 29 128.675 29C126.698 29 125.168 28.7153 123.82 28.1409C122.471 27.5665 121.475 26.8522 120.836 25.9881C120.192 25.124 119.875 24.2649 119.875 23.3958C119.875 22.8214 120.081 22.3319 120.489 21.9223C120.901 21.5127 121.42 21.308 122.054 21.308C122.602 21.308 123.03 21.4428 123.327 21.7075C123.623 21.9773 123.905 22.3519 124.172 22.8364C124.71 23.7654 125.359 24.4597 126.109 24.9192C126.859 25.3787 127.885 25.6085 129.183 25.6085C130.235 25.6085 131.1 25.3738 131.774 24.9092C132.449 24.4447 132.786 23.9153 132.786 23.3109C132.786 22.3918 132.433 21.7225 131.739 21.303C131.04 20.8834 129.883 20.4788 128.278 20.0992C126.466 19.6547 124.992 19.1852 123.855 18.6957C122.718 18.2062 121.812 17.5568 121.128 16.7527C120.449 15.9485 120.106 14.9595 120.106 13.7907C120.106 12.7418 120.423 11.7528 121.052 10.8238C121.681 9.89477 122.607 9.15054 123.835 8.59611C125.062 8.04168 126.542 7.76697 128.278 7.76697C129.641 7.76697 130.864 7.90682 131.95 8.18653C133.037 8.46624 133.938 8.84585 134.667 9.31537C135.392 9.78987 135.945 10.3093 136.323 10.8837C136.7 11.4581 136.891 12.0176 136.891 12.567C136.891 13.1664 136.69 13.6609 136.288 14.0405C135.88 14.4251 135.306 14.6149 134.562 14.6149C134.018 14.6149 133.561 14.46 133.183 14.1554C132.806 13.8507 132.373 13.3911 131.885 12.7768C131.483 12.2673 131.015 11.8577 130.481 11.5531C129.938 11.2484 129.208 11.0935 128.283 11.0935C127.357 11.0935 126.542 11.2933 125.913 11.6979C125.284 12.0975 124.967 12.602 124.967 13.2013C124.967 13.7508 125.198 14.2003 125.661 14.55C126.124 14.8996 126.743 15.1893 127.528 15.4191C128.313 15.6488 129.389 15.9285 130.763 16.2632C132.393 16.6578 133.727 17.1273 134.763 17.6767C135.794 18.2261 136.579 18.8705 137.113 19.6197C137.646 20.3639 137.913 21.2181 137.913 22.1721" fill="white"/>
<path d="M146.511 3.17671V10.9237C147.175 10.1595 147.829 9.55012 148.468 9.10558C149.102 8.66104 149.807 8.32639 150.576 8.10162C151.346 7.87685 152.176 7.76697 153.062 7.76697C154.395 7.76697 155.583 8.04668 156.619 8.6061C157.651 9.16552 158.466 9.98467 159.054 11.0536C159.427 11.6779 159.678 12.3772 159.804 13.1514C159.93 13.9256 159.995 14.8147 159.995 15.8186V25.8233C159.995 26.8722 159.754 27.6614 159.276 28.1958C158.793 28.7303 158.154 29 157.359 29C155.623 29 154.757 27.9411 154.757 25.8233V17.0074C154.757 15.3391 154.506 14.0505 154.008 13.1564C153.51 12.2623 152.554 11.8078 151.155 11.8078C150.219 11.8078 149.374 12.0725 148.619 12.602C147.869 13.1314 147.306 13.8557 146.934 14.7747C146.652 15.5539 146.511 16.9375 146.511 18.9254V25.8283C146.511 26.8622 146.274 27.6514 145.807 28.1908C145.339 28.7303 144.685 29 143.849 29C142.118 29 141.248 27.9411 141.248 25.8233V3.17671C141.248 2.11781 141.474 1.32363 141.932 0.794178C142.39 0.264726 143.029 0 143.849 0C144.669 0 145.334 0.269721 145.807 0.804168C146.274 1.33862 146.511 2.13279 146.511 3.17671Z" fill="white"/>
</g>
<path d="M128.093 39.2665C128.025 38.9291 127.92 38.604 127.786 38.2966C127.636 37.9499 127.445 37.6248 127.22 37.3266C127.082 37.143 126.931 36.9696 126.769 36.8066C126.607 36.6446 126.432 36.4939 126.249 36.3557C125.951 36.1307 125.624 35.9398 125.279 35.7892C124.97 35.6551 124.646 35.5508 124.309 35.4827C123.995 35.4188 123.671 35.3857 123.339 35.3857C123.007 35.3857 122.682 35.4188 122.369 35.4827C122.032 35.5508 121.707 35.6551 121.399 35.7892C121.052 35.9398 120.727 36.1307 120.429 36.3557C120.246 36.4939 120.071 36.6446 119.909 36.8066C119.747 36.9686 119.596 37.143 119.458 37.3266C119.233 37.6248 119.042 37.9509 118.892 38.2966C118.758 38.6051 118.653 38.9301 118.585 39.2665C118.521 39.5802 118.488 39.9042 118.488 40.2364C118.488 40.5687 118.521 40.8937 118.585 41.2063C118.653 41.5437 118.758 41.8688 118.892 42.1763C119.042 42.523 119.233 42.848 119.458 43.1462C119.734 43.5135 120.061 43.8406 120.428 44.1161C120.726 44.341 121.052 44.5319 121.398 44.6826C121.707 44.8167 122.031 44.9209 122.368 44.989C122.682 45.053 123.006 45.086 123.338 45.086C123.67 45.086 123.995 45.053 124.308 44.989C124.645 44.9209 124.97 44.8167 125.278 44.6826C125.624 44.5319 125.949 44.341 126.248 44.1161C126.431 43.9778 126.606 43.8272 126.768 43.6652C126.93 43.5032 127.08 43.3288 127.219 43.1452C127.444 42.847 127.634 42.5209 127.785 42.1752C127.919 41.8667 128.023 41.5417 128.092 41.2053C128.156 40.8916 128.189 40.5676 128.189 40.2354C128.189 39.9031 128.156 39.5781 128.092 39.2654L128.093 39.2665ZM126.084 41.2074C125.956 41.5685 125.759 41.8977 125.508 42.1773C125.472 42.2175 125.435 42.2567 125.396 42.2949C125.358 42.3331 125.319 42.3702 125.279 42.4053C124.999 42.6561 124.67 42.8531 124.309 42.9811C124.006 43.0884 123.679 43.1472 123.339 43.1472C122.998 43.1472 122.672 43.0884 122.369 42.9811C122.008 42.8531 121.679 42.6561 121.399 42.4053C121.319 42.3331 121.242 42.2567 121.17 42.1763C120.919 41.8966 120.722 41.5675 120.594 41.2063C120.487 40.903 120.428 40.5759 120.428 40.2364C120.428 39.8969 120.487 39.5698 120.594 39.2665C120.722 38.9043 120.919 38.5762 121.17 38.2966C121.206 38.2563 121.243 38.2171 121.281 38.1789C121.32 38.1407 121.359 38.1036 121.399 38.0675C121.679 37.8167 122.008 37.6197 122.369 37.4917C122.672 37.3844 122.999 37.3256 123.339 37.3256C123.678 37.3256 124.006 37.3844 124.309 37.4917C124.67 37.6197 124.999 37.8167 125.279 38.0675C125.319 38.1036 125.358 38.1397 125.396 38.1779C125.435 38.2161 125.472 38.2553 125.508 38.2955C125.759 38.5751 125.956 38.9043 126.084 39.2654C126.191 39.5688 126.25 39.8949 126.25 40.2354C126.25 40.5759 126.191 40.9019 126.084 41.2053V41.2074Z" fill="white"/>
<path d="M89.375 40.2374C89.375 40.5697 89.342 40.8947 89.2781 41.2074H85.4943L84.5244 40.2374L83.5545 39.2675H87.2701C87.1421 38.9053 86.9451 38.5772 86.6943 38.2976C86.6582 38.2574 86.6211 38.2181 86.5829 38.18C86.5447 38.1418 86.5055 38.1046 86.4653 38.0685C86.1856 37.8178 85.8565 37.6207 85.4953 37.4928C85.192 37.3855 84.8649 37.3266 84.5254 37.3266C84.1859 37.3266 83.8588 37.3855 83.5555 37.4928C83.1933 37.6207 82.8652 37.8178 82.5856 38.0685C82.5453 38.1046 82.5061 38.1418 82.4679 38.18C82.4298 38.2181 82.3926 38.2574 82.3565 38.2976C82.1058 38.5772 81.9087 38.9064 81.7807 39.2675C81.6734 39.5709 81.6146 39.8969 81.6146 40.2374C81.6146 40.578 81.6734 40.904 81.7807 41.2074C81.9087 41.5685 82.1058 41.8977 82.3565 42.1773C82.4287 42.2578 82.5051 42.3341 82.5856 42.4064C82.8652 42.6571 83.1943 42.8542 83.5555 42.9821C83.8588 43.0894 84.1849 43.1483 84.5254 43.1483C84.8659 43.1483 85.192 43.0894 85.4953 42.9821C85.8565 42.8542 86.1856 42.6571 86.4653 42.4064C86.5055 42.3703 86.5447 42.3331 86.5829 42.2949L87.9552 43.6673C87.7932 43.8293 87.6189 43.9799 87.4352 44.1182C87.137 44.3431 86.8109 44.534 86.4653 44.6847C86.1567 44.8188 85.8317 44.923 85.4953 44.9911C85.1817 45.0551 84.8577 45.0881 84.5254 45.0881C84.1932 45.0881 83.8681 45.0551 83.5555 44.9911C83.2181 44.923 82.893 44.8188 82.5856 44.6847C82.2389 44.534 81.9138 44.3431 81.6156 44.1182C81.2483 43.8427 80.9212 43.5156 80.6457 43.1483C80.4208 42.8501 80.2299 42.524 80.0792 42.1783C79.9451 41.8698 79.8409 41.5448 79.7728 41.2084C79.7088 40.8947 79.6758 40.5707 79.6758 40.2385C79.6758 39.9062 79.7088 39.5812 79.7728 39.2686C79.8409 38.9311 79.9451 38.6061 80.0792 38.2986C80.2299 37.9519 80.4208 37.6269 80.6457 37.3287C80.7829 37.145 80.9346 36.9717 81.0966 36.8087C81.2586 36.6467 81.433 36.496 81.6167 36.3577C81.9149 36.1328 82.2409 35.9419 82.5866 35.7913C82.8951 35.6571 83.2201 35.5529 83.5565 35.4848C83.8702 35.4208 84.1942 35.3878 84.5264 35.3878C84.8587 35.3878 85.1837 35.4208 85.4964 35.4848C85.8338 35.5529 86.1588 35.6571 86.4663 35.7913C86.813 35.9419 87.138 36.1328 87.4362 36.3577C87.6199 36.495 87.7932 36.6467 87.9563 36.8087C88.1183 36.9707 88.2689 37.145 88.4072 37.3287C88.6321 37.6269 88.823 37.953 88.9737 38.2986C89.1078 38.6071 89.212 38.9322 89.2801 39.2686C89.3441 39.5822 89.3771 39.9062 89.3771 40.2385L89.375 40.2374Z" fill="white"/>
<path d="M110.723 40.2374C110.723 40.5697 110.69 40.8947 110.626 41.2074H106.842L105.872 40.2374L104.902 39.2675H108.618C108.49 38.9053 108.293 38.5772 108.042 38.2976C108.006 38.2574 107.969 38.2181 107.931 38.18C107.892 38.1418 107.853 38.1046 107.813 38.0685C107.533 37.8178 107.204 37.6207 106.843 37.4928C106.54 37.3855 106.213 37.3266 105.873 37.3266C105.534 37.3266 105.207 37.3855 104.903 37.4928C104.541 37.6207 104.213 37.8178 103.933 38.0685C103.893 38.1046 103.854 38.1418 103.816 38.18C103.777 38.2181 103.74 38.2574 103.704 38.2976C103.453 38.5772 103.256 38.9064 103.128 39.2675C103.021 39.5709 102.962 39.8969 102.962 40.2374C102.962 40.578 103.021 40.904 103.128 41.2074C103.256 41.5685 103.453 41.8977 103.704 42.1773C103.776 42.2578 103.853 42.3341 103.933 42.4064C104.213 42.6571 104.542 42.8542 104.903 42.9821C105.207 43.0894 105.533 43.1483 105.873 43.1483C106.214 43.1483 106.54 43.0894 106.843 42.9821C107.204 42.8542 107.533 42.6571 107.813 42.4064C107.853 42.3703 107.892 42.3331 107.931 42.2949L109.303 43.6673C109.141 43.8293 108.967 43.9799 108.783 44.1182C108.485 44.3431 108.159 44.534 107.813 44.6847C107.504 44.8188 107.179 44.923 106.843 44.9911C106.529 45.0551 106.205 45.0881 105.873 45.0881C105.541 45.0881 105.216 45.0551 104.903 44.9911C104.566 44.923 104.241 44.8188 103.933 44.6847C103.587 44.534 103.261 44.3431 102.963 44.1182C102.596 43.8427 102.269 43.5156 101.993 43.1483C101.768 42.8501 101.578 42.524 101.427 42.1783C101.293 41.8698 101.189 41.5448 101.12 41.2084C101.056 40.8947 101.023 40.5707 101.023 40.2385C101.023 39.9062 101.056 39.5812 101.12 39.2686C101.189 38.9311 101.293 38.6061 101.427 38.2986C101.578 37.9519 101.768 37.6269 101.993 37.3287C102.131 37.145 102.282 36.9717 102.444 36.8087C102.606 36.6467 102.781 36.496 102.964 36.3577C103.263 36.1328 103.589 35.9419 103.934 35.7913C104.243 35.6571 104.568 35.5529 104.904 35.4848C105.218 35.4208 105.542 35.3878 105.874 35.3878C106.206 35.3878 106.531 35.4208 106.844 35.4848C107.181 35.5529 107.506 35.6571 107.814 35.7913C108.161 35.9419 108.486 36.1328 108.784 36.3577C108.968 36.495 109.141 36.6467 109.304 36.8087C109.466 36.9707 109.617 37.145 109.755 37.3287C109.98 37.6269 110.171 37.953 110.321 38.2986C110.455 38.6071 110.56 38.9322 110.628 39.2686C110.692 39.5822 110.725 39.9062 110.725 40.2385L110.723 40.2374Z" fill="white"/>
<path d="M149.537 40.2374C149.537 40.5697 149.504 40.8947 149.44 41.2074H145.656L144.686 40.2374L143.717 39.2675H147.432C147.304 38.9053 147.107 38.5772 146.856 38.2976C146.82 38.2574 146.783 38.2181 146.745 38.18C146.707 38.1418 146.668 38.1046 146.627 38.0685C146.348 37.8178 146.019 37.6207 145.657 37.4928C145.354 37.3855 145.027 37.3266 144.688 37.3266C144.348 37.3266 144.021 37.3855 143.718 37.4928C143.355 37.6207 143.027 37.8178 142.748 38.0685C142.707 38.1046 142.668 38.1418 142.63 38.18C142.592 38.2181 142.555 38.2574 142.519 38.2976C142.268 38.5772 142.071 38.9064 141.943 39.2675C141.836 39.5709 141.777 39.8969 141.777 40.2374C141.777 40.578 141.836 40.904 141.943 41.2074C142.071 41.5685 142.268 41.8977 142.519 42.1773C142.591 42.2578 142.667 42.3341 142.748 42.4064C143.027 42.6571 143.356 42.8542 143.718 42.9821C144.021 43.0894 144.347 43.1483 144.688 43.1483C145.028 43.1483 145.354 43.0894 145.657 42.9821C146.019 42.8542 146.348 42.6571 146.627 42.4064C146.668 42.3703 146.707 42.3331 146.745 42.2949L148.117 43.6673C147.955 43.8293 147.781 43.9799 147.597 44.1182C147.299 44.3431 146.973 44.534 146.627 44.6847C146.319 44.8188 145.994 44.923 145.657 44.9911C145.344 45.0551 145.02 45.0881 144.688 45.0881C144.355 45.0881 144.03 45.0551 143.718 44.9911C143.38 44.923 143.055 44.8188 142.748 44.6847C142.401 44.534 142.076 44.3431 141.778 44.1182C141.41 43.8427 141.083 43.5156 140.808 43.1483C140.583 42.8501 140.392 42.524 140.241 42.1783C140.107 41.8698 140.003 41.5448 139.935 41.2084C139.871 40.8947 139.838 40.5707 139.838 40.2385C139.838 39.9062 139.871 39.5812 139.935 39.2686C140.003 38.9311 140.107 38.6061 140.241 38.2986C140.392 37.9519 140.583 37.6269 140.808 37.3287C140.945 37.145 141.097 36.9717 141.259 36.8087C141.421 36.6467 141.595 36.496 141.779 36.3577C142.077 36.1328 142.403 35.9419 142.749 35.7913C143.057 35.6571 143.382 35.5529 143.719 35.4848C144.032 35.4208 144.356 35.3878 144.689 35.3878C145.021 35.3878 145.346 35.4208 145.658 35.4848C145.996 35.5529 146.321 35.6571 146.628 35.7913C146.975 35.9419 147.3 36.1328 147.598 36.3577C147.782 36.495 147.955 36.6467 148.118 36.8087C148.28 36.9707 148.431 37.145 148.569 37.3287C148.794 37.6269 148.985 37.953 149.136 38.2986C149.27 38.6071 149.374 38.9322 149.442 39.2686C149.506 39.5822 149.539 39.9062 149.539 40.2385L149.537 40.2374Z" fill="white"/>
<path d="M76.7604 32.4739V36.3557C76.4622 36.1308 76.1372 35.9399 75.7905 35.7892C75.482 35.6551 75.158 35.5509 74.8206 35.4828C74.5069 35.4188 74.1829 35.3858 73.8507 35.3858C73.5184 35.3858 73.1934 35.4188 72.8807 35.4828C72.5433 35.5509 72.2183 35.6551 71.9108 35.7892C71.5641 35.9399 71.2391 36.1308 70.9409 36.3557C70.7572 36.4929 70.5839 36.6446 70.4208 36.8066C70.2588 36.9686 70.1082 37.143 69.9699 37.3267C69.745 37.6249 69.5541 37.9509 69.4035 38.2966C69.2693 38.6051 69.1651 38.9301 69.097 39.2665C69.033 39.5802 69 39.9042 69 40.2364C69 40.5687 69.033 40.8937 69.097 41.2064C69.1651 41.5438 69.2693 41.8688 69.4035 42.1763C69.5541 42.523 69.745 42.848 69.9699 43.1462C70.2454 43.5136 70.5725 43.8406 70.9399 44.1161C71.2381 44.3411 71.5641 44.532 71.9098 44.6826C72.2183 44.8168 72.5433 44.921 72.8797 44.9891C73.1934 45.0531 73.5174 45.0861 73.8496 45.0861C74.1819 45.0861 74.5069 45.0531 74.8196 44.9891C75.157 44.921 75.482 44.8168 75.7895 44.6826C76.1362 44.532 76.4612 44.3411 76.7594 44.1161C76.9431 43.9779 77.1164 43.8272 77.2784 43.6652C77.4404 43.5032 77.5911 43.3289 77.7293 43.1452C77.9543 42.847 78.1452 42.5209 78.2948 42.1753C78.43 41.8667 78.5331 41.5417 78.6023 41.2053C78.6662 40.8917 78.6993 40.5677 78.6993 40.2354V32.4729H76.7584L76.7604 32.4739ZM76.5954 41.2074C76.4674 41.5685 76.2703 41.8977 76.0196 42.1773C75.9835 42.2176 75.9463 42.2568 75.9081 42.295C75.87 42.3331 75.8308 42.3703 75.7905 42.4064C75.5109 42.6571 75.1817 42.8542 74.8206 42.9822C74.5172 43.0895 74.1901 43.1483 73.8507 43.1483C73.5112 43.1483 73.1841 43.0895 72.8807 42.9822C72.5186 42.8542 72.1904 42.6571 71.9108 42.4064C71.8303 42.3342 71.754 42.2578 71.6817 42.1773C71.431 41.8977 71.2339 41.5685 71.106 41.2074C70.9987 40.904 70.9399 40.5769 70.9399 40.2375C70.9399 39.898 70.9987 39.5709 71.106 39.2675C71.2339 38.9054 71.431 38.5772 71.6817 38.2976C71.7179 38.2574 71.755 38.2182 71.7932 38.18C71.8314 38.1418 71.8706 38.1047 71.9108 38.0686C72.1904 37.8178 72.5196 37.6207 72.8807 37.4928C73.1841 37.3855 73.5102 37.3267 73.8507 37.3267C74.1912 37.3267 74.5172 37.3855 74.8206 37.4928C75.1817 37.6207 75.5109 37.8178 75.7905 38.0686C75.8308 38.1047 75.87 38.1418 75.9081 38.18C75.9463 38.2182 75.9835 38.2574 76.0196 38.2976C76.2703 38.5772 76.4674 38.9064 76.5954 39.2675C76.7027 39.5709 76.7615 39.897 76.7615 40.2375C76.7615 40.578 76.7027 40.904 76.5954 41.2074Z" fill="white"/>
<path d="M131.101 48V44.1182C131.399 44.3431 131.724 44.534 132.071 44.6847C132.379 44.8188 132.703 44.923 133.041 44.9911C133.354 45.0551 133.678 45.0881 134.011 45.0881C134.343 45.0881 134.668 45.0551 134.981 44.9911C135.318 44.923 135.643 44.8188 135.951 44.6847C136.297 44.534 136.622 44.3431 136.92 44.1182C137.104 43.981 137.278 43.8293 137.441 43.6673C137.603 43.5053 137.753 43.3309 137.891 43.1472C138.116 42.849 138.307 42.523 138.458 42.1773C138.592 41.8688 138.696 41.5438 138.764 41.2074C138.828 40.8937 138.861 40.5697 138.861 40.2374C138.861 39.9052 138.828 39.5802 138.764 39.2675C138.696 38.9301 138.592 38.6051 138.458 38.2976C138.307 37.9509 138.116 37.6259 137.891 37.3277C137.616 36.9603 137.289 36.6332 136.922 36.3577C136.623 36.1328 136.297 35.9419 135.952 35.7913C135.643 35.6571 135.318 35.5529 134.982 35.4848C134.668 35.4208 134.344 35.3878 134.012 35.3878C133.679 35.3878 133.354 35.4208 133.042 35.4848C132.704 35.5529 132.379 35.6571 132.072 35.7913C131.725 35.9419 131.4 36.1328 131.102 36.3577C130.918 36.496 130.745 36.6467 130.583 36.8087C130.421 36.9707 130.27 37.145 130.132 37.3287C129.907 37.6269 129.716 37.953 129.567 38.2986C129.431 38.6071 129.328 38.9322 129.259 39.2686C129.195 39.5822 129.162 39.9062 129.162 40.2385V48.001H131.103L131.101 48ZM131.266 39.2665C131.394 38.9053 131.591 38.5762 131.842 38.2966C131.878 38.2563 131.915 38.2171 131.953 38.1789C131.991 38.1408 132.031 38.1036 132.071 38.0675C132.35 37.8168 132.68 37.6197 133.041 37.4917C133.344 37.3844 133.671 37.3256 134.011 37.3256C134.35 37.3256 134.677 37.3844 134.981 37.4917C135.343 37.6197 135.671 37.8168 135.951 38.0675C136.031 38.1397 136.107 38.2161 136.18 38.2966C136.43 38.5762 136.627 38.9053 136.755 39.2665C136.863 39.5698 136.922 39.8969 136.922 40.2364C136.922 40.5759 136.863 40.903 136.755 41.2063C136.627 41.5685 136.43 41.8966 136.18 42.1763C136.144 42.2165 136.106 42.2557 136.068 42.2939C136.03 42.3321 135.991 42.3692 135.951 42.4053C135.671 42.6561 135.342 42.8532 134.981 42.9811C134.677 43.0884 134.351 43.1472 134.011 43.1472C133.67 43.1472 133.344 43.0884 133.041 42.9811C132.68 42.8532 132.35 42.6561 132.071 42.4053C132.031 42.3692 131.991 42.3321 131.953 42.2939C131.915 42.2557 131.878 42.2165 131.842 42.1763C131.591 41.8966 131.394 41.5675 131.266 41.2063C131.159 40.903 131.1 40.5769 131.1 40.2364C131.1 39.8959 131.159 39.5698 131.266 39.2665Z" fill="white"/>
<path d="M100.049 35.3857L99.6611 36.3557L99.2731 37.3256L98.8852 38.2966L98.4962 39.2665L98.1082 40.2374L97.7202 41.2074L97.3323 42.1773L96.9443 43.1482L96.5563 44.1182L96.1684 45.0891H94.2275L93.8395 44.1182L93.4505 43.1482L93.0625 42.1773L92.6746 41.2074L92.2866 40.2374L91.8986 39.2665L91.5106 38.2966L91.1227 37.3256L90.7337 36.3557L90.3457 35.3857H92.2866L92.6746 36.3557L93.0625 37.3256L93.4505 38.2966L93.8395 39.2665L94.2275 40.2374L94.6154 41.2074L95.0034 42.1773L95.1974 42.6633L95.3914 42.1773L95.7804 41.2074L96.1684 40.2374L96.5563 39.2665L96.9443 38.2966L97.3323 37.3256L97.7202 36.3557L98.1082 35.3857H100.049Z" fill="white"/>
<path d="M117.516 35.3857L117.128 36.3557L116.739 37.3256L116.351 38.2966L115.963 39.2665L115.575 40.2374L115.187 41.2074L114.798 42.1773L114.41 43.1482L114.022 44.1182L113.634 45.0891H111.693L112.081 44.1182L112.47 43.1482L112.858 42.1773L113.246 41.2074L113.634 40.2374L114.022 39.2665L114.41 38.2966L114.798 37.3256L115.187 36.3557L115.575 35.3857H117.516Z" fill="white"/>
<path d="M160.115 39.2665H158.106C157.978 38.9044 157.781 38.5762 157.53 38.2966C157.494 38.2564 157.457 38.2172 157.419 38.179C157.381 38.1408 157.342 38.1037 157.301 38.0675C157.022 37.8168 156.693 37.6197 156.331 37.4918C156.028 37.3845 155.701 37.3256 155.361 37.3256C155.022 37.3256 154.695 37.3845 154.392 37.4918C154.03 37.6197 153.701 37.8168 153.422 38.0675C153.381 38.1037 153.342 38.1398 153.304 38.1779C153.266 38.2161 153.229 38.2553 153.193 38.2956C152.942 38.5752 152.745 38.9044 152.617 39.2655C152.509 39.5689 152.451 39.8949 152.451 40.2354V45.0871H150.51V40.2354C150.51 39.9032 150.543 39.5782 150.607 39.2655C150.675 38.9281 150.779 38.6031 150.913 38.2956C151.064 37.9489 151.255 37.6239 151.48 37.3256C151.617 37.142 151.769 36.9686 151.931 36.8056C152.093 36.6436 152.267 36.493 152.451 36.3547C152.749 36.1298 153.075 35.9389 153.421 35.7882C153.729 35.6541 154.053 35.5499 154.391 35.4818C154.704 35.4178 155.028 35.3848 155.36 35.3848C155.693 35.3848 156.018 35.4178 156.33 35.4818C156.668 35.5499 156.993 35.6541 157.3 35.7882C157.647 35.9389 157.972 36.1298 158.27 36.3547C158.454 36.493 158.628 36.6436 158.79 36.8056C158.952 36.9676 159.103 37.142 159.241 37.3256C159.466 37.6239 159.657 37.9499 159.808 38.2956C159.942 38.6041 160.046 38.9291 160.114 39.2655L160.115 39.2665Z" fill="white"/>
</g>
<defs>
<clipPath id="clip0_1974_53658">
<rect width="160.296" height="48" fill="white"/>
</clipPath>
<clipPath id="clip1_1974_53658">
<rect width="160" height="29" fill="white"/>
</clipPath>
</defs>
</svg>
