<svg width="216" height="24" viewBox="0 0 216 24" fill="none" xmlns="http://www.w3.org/2000/svg">
<g id="EcoCash Logo" clip-path="url(#clip0_1049_9288)">
<path id="Vector" d="M18.3937 14.8033C18.3937 15.4331 18.3305 16.0483 18.2094 16.6426H11.0362L9.19683 14.8033L7.35746 12.9639H14.4009C14.1586 12.2778 13.7849 11.6549 13.3099 11.1245C13.2415 11.0484 13.1714 10.974 13.0988 10.9013C13.0261 10.8287 12.9517 10.7586 12.8756 10.6902C12.3452 10.2152 11.7214 9.84148 11.0362 9.59924C10.4609 9.39592 9.84138 9.28518 9.19683 9.28518C8.55227 9.28518 7.93281 9.39592 7.35746 9.59924C6.67138 9.84148 6.04845 10.2152 5.5181 10.6902C5.44196 10.7586 5.36756 10.8287 5.29488 10.9013C5.22221 10.974 5.15213 11.0484 5.08378 11.1245C4.6088 11.6549 4.23504 12.2778 3.99279 12.9639C3.78947 13.5392 3.67873 14.1579 3.67873 14.8033C3.67873 15.4487 3.78947 16.0673 3.99279 16.6426C4.23504 17.3279 4.6088 17.9517 5.08378 18.482C5.22048 18.6343 5.36496 18.7796 5.5181 18.9163C6.04845 19.3913 6.67138 19.7651 7.35746 20.0073C7.93281 20.2106 8.55141 20.3214 9.19683 20.3214C9.84225 20.3214 10.4609 20.2106 11.0362 20.0073C11.7214 19.7651 12.3452 19.3913 12.8756 18.9163C12.9517 18.848 13.0261 18.7779 13.0988 18.7052L15.7004 21.3068C15.3924 21.6139 15.0636 21.9003 14.7149 22.1607C14.1491 22.5864 13.5322 22.948 12.8756 23.2344C12.2916 23.4896 11.6756 23.686 11.0362 23.8158C10.4418 23.9369 9.82668 24.0001 9.19683 24.0001C8.56698 24.0001 7.95184 23.9369 7.35746 23.8158C6.7181 23.686 6.10209 23.4896 5.5181 23.2344C4.86143 22.948 4.24456 22.5864 3.67873 22.1607C2.98226 21.6382 2.36193 21.0178 1.83937 20.3214C1.4137 19.7555 1.05205 19.1387 0.765681 18.482C0.510454 17.898 0.314059 17.282 0.184283 16.6426C0.0631579 16.0483 0 15.4331 0 14.8033C0 14.1734 0.0631579 13.5583 0.184283 12.9639C0.314059 12.3245 0.510454 11.7085 0.765681 11.1245C1.05205 10.4679 1.4137 9.851 1.83937 9.28518C2.09978 8.93651 2.38616 8.60774 2.6933 8.29974C3.0013 7.9926 3.33007 7.70623 3.67873 7.44581C4.24456 7.02014 4.86143 6.6585 5.5181 6.37213C6.10209 6.1169 6.7181 5.9205 7.35746 5.79073C7.95184 5.6696 8.56698 5.60645 9.19683 5.60645C9.82668 5.60645 10.4418 5.6696 11.0362 5.79073C11.6756 5.9205 12.2916 6.1169 12.8756 6.37213C13.5322 6.6585 14.1491 7.02014 14.7149 7.44581C15.0636 7.70623 15.3924 7.9926 15.7004 8.29974C16.0075 8.60774 16.2939 8.93651 16.5543 9.28518C16.98 9.851 17.3416 10.4679 17.628 11.1245C17.8832 11.7085 18.0796 12.3245 18.2094 12.9639C18.3305 13.5583 18.3937 14.1734 18.3937 14.8033Z" fill="#0A5BA8"/>
<path id="Vector_2" d="M34.948 20.233L35.9334 21.2184C35.6263 21.5256 35.2966 21.8111 34.948 22.0724C34.3821 22.498 33.7653 22.8597 33.1086 23.146C32.5246 23.4013 31.9095 23.5977 31.2692 23.7274C30.6748 23.8486 30.0597 23.9117 29.4299 23.9117C28.8 23.9117 28.1849 23.8486 27.5905 23.7274C26.9503 23.5977 26.3351 23.4013 25.7511 23.146C25.0945 22.8597 24.4776 22.498 23.9118 22.0724C23.5631 21.8111 23.2335 21.5256 22.9263 21.2184C22.6192 20.9104 22.3328 20.5817 22.0724 20.233C21.6467 19.6672 21.2851 19.0503 20.9987 18.3936C20.7435 17.8096 20.5471 17.1936 20.4173 16.5543C20.2962 15.9599 20.233 15.3447 20.233 14.7149C20.233 14.085 20.2962 13.4699 20.4173 12.8755C20.5471 12.2362 20.7435 11.6202 20.9987 11.0362C21.2851 10.3795 21.6467 9.76262 22.0724 9.1968C22.3328 8.84813 22.6192 8.51936 22.9263 8.21136C23.2335 7.90422 23.5631 7.61872 23.9118 7.35743C24.4776 6.93177 25.0945 6.57012 25.7511 6.28375C26.3351 6.02852 26.9503 5.83213 27.5905 5.70235C28.1849 5.58122 28.8 5.51807 29.4299 5.51807C30.0597 5.51807 30.6748 5.58122 31.2692 5.70235C31.9095 5.83213 32.5246 6.02852 33.1086 6.28375C33.7653 6.57012 34.3821 6.93177 34.948 7.35743C35.2966 7.61872 35.6263 7.90422 35.9334 8.21136L34.948 9.1968L33.3318 10.8129C33.2591 10.7403 33.1847 10.6702 33.1086 10.6018C32.5782 10.1269 31.9544 9.75311 31.2692 9.51086C30.6939 9.30754 30.0744 9.1968 29.4299 9.1968C28.7853 9.1968 28.1658 9.30754 27.5905 9.51086C26.9053 9.75311 26.2815 10.1269 25.7511 10.6027C25.6741 10.6702 25.6006 10.7403 25.5279 10.8129C25.4552 10.8856 25.3852 10.96 25.3168 11.0362C24.8418 11.5665 24.4681 12.1894 24.2258 12.8755C24.0225 13.4509 23.9118 14.0695 23.9118 14.7149C23.9118 15.3603 24.0225 15.9789 24.2258 16.5543C24.4681 17.2395 24.8418 17.8633 25.3168 18.3936C25.3852 18.4698 25.4552 18.5442 25.5279 18.6168C25.6006 18.6895 25.6741 18.7596 25.7511 18.8271C26.2815 19.3029 26.9053 19.6767 27.5905 19.9189C28.1658 20.1222 28.7844 20.233 29.4299 20.233C30.0753 20.233 30.6939 20.1222 31.2692 19.9189C31.9544 19.6767 32.5782 19.3029 33.1086 18.8279C33.1847 18.7596 33.2591 18.6895 33.3318 18.6168L34.948 20.233Z" fill="#0A5BA8"/>
<path id="Vector_3" d="M55.9821 12.8755C55.8523 12.2362 55.656 11.6202 55.4007 11.0362C55.1144 10.3795 54.7527 9.76262 54.327 9.1968C54.0666 8.84813 53.7803 8.51936 53.4731 8.21136C53.166 7.90422 52.8363 7.61872 52.4877 7.35743C51.9218 6.93177 51.305 6.57012 50.6483 6.28375C50.0643 6.02852 49.4492 5.83213 48.8089 5.70235C48.2146 5.58122 47.5994 5.51807 46.9696 5.51807C46.3397 5.51807 45.7246 5.58122 45.1302 5.70235C44.49 5.83213 43.8748 6.02852 43.2908 6.28375C42.6342 6.57012 42.0173 6.93177 41.4515 7.35743C41.1028 7.61872 40.7732 7.90422 40.466 8.21136C40.1589 8.51936 39.8725 8.84813 39.6121 9.1968C39.1865 9.76262 38.8248 10.3795 38.5384 11.0362C38.2832 11.6202 38.0868 12.2362 37.957 12.8755C37.8359 13.4699 37.7728 14.085 37.7728 14.7149C37.7728 15.3447 37.8359 15.9599 37.957 16.5543C38.0868 17.1936 38.2832 17.8096 38.5384 18.3936C38.8248 19.0503 39.1865 19.6672 39.6121 20.233C40.1347 20.9295 40.7541 21.5498 41.4515 22.0724C42.0173 22.498 42.6342 22.8597 43.2908 23.146C43.8748 23.4013 44.49 23.5977 45.1302 23.7274C45.7246 23.8486 46.3397 23.9117 46.9696 23.9117C47.5994 23.9117 48.2146 23.8486 48.8089 23.7274C49.4492 23.5977 50.0643 23.4013 50.6483 23.146C51.305 22.8597 51.9218 22.498 52.4877 22.0724C52.8363 21.8111 53.166 21.5256 53.4731 21.2184C53.7803 20.9104 54.0666 20.5817 54.327 20.233C54.7527 19.6672 55.1144 19.0503 55.4007 18.3936C55.656 17.8096 55.8523 17.1936 55.9821 16.5543C56.1032 15.9599 56.1664 15.3447 56.1664 14.7149C56.1664 14.085 56.1032 13.4699 55.9821 12.8755ZM52.1736 16.5543C51.9314 17.2395 51.5576 17.8633 51.0826 18.3936C51.0143 18.4698 50.9442 18.5442 50.8715 18.6168C50.7989 18.6895 50.7253 18.7596 50.6483 18.8271C50.118 19.3029 49.4942 19.6767 48.8089 19.9189C48.2336 20.1222 47.615 20.233 46.9696 20.233C46.3242 20.233 45.7056 20.1222 45.1302 19.9189C44.445 19.6767 43.8212 19.3029 43.2908 18.8279C43.1377 18.6912 42.9932 18.5459 42.8565 18.3936C42.3815 17.8633 42.0078 17.2395 41.7655 16.5543C41.5622 15.9789 41.4515 15.3595 41.4515 14.7149C41.4515 14.0703 41.5622 13.4509 41.7655 12.8755C42.0078 12.1894 42.3815 11.5665 42.8565 11.0362C42.9249 10.96 42.995 10.8856 43.0676 10.8129C43.1403 10.7403 43.2147 10.6702 43.2908 10.6018C43.8212 10.1269 44.445 9.75311 45.1302 9.51086C45.7056 9.30754 46.325 9.1968 46.9696 9.1968C47.6141 9.1968 48.2336 9.30754 48.8089 9.51086C49.4942 9.75311 50.118 10.1269 50.6483 10.6027C50.7253 10.6702 50.7989 10.7403 50.8715 10.8129C50.9442 10.8856 51.0143 10.96 51.0826 11.0362C51.5576 11.5665 51.9314 12.1894 52.1736 12.8755C52.3769 13.4509 52.4877 14.0695 52.4877 14.7149C52.4877 15.3603 52.3769 15.9789 52.1736 16.5543Z" fill="#0A5BA8"/>
<g id="Group">
<path id="Vector_4" d="M195.295 14.8033C195.295 15.4331 195.232 16.0483 195.111 16.6426H187.938L186.099 14.8033L184.259 12.9639H191.303C191.06 12.2778 190.687 11.6549 190.212 11.1245C190.143 11.0484 190.073 10.974 190.001 10.9013C189.928 10.8287 189.854 10.7586 189.777 10.6902C189.247 10.2152 188.623 9.84148 187.938 9.59924C187.363 9.39592 186.743 9.28518 186.099 9.28518C185.454 9.28518 184.835 9.39592 184.259 9.59924C183.573 9.84148 182.95 10.2152 182.42 10.6902C182.344 10.7586 182.269 10.8287 182.197 10.9013C182.124 10.974 182.054 11.0484 181.986 11.1245C181.511 11.6549 181.137 12.2778 180.895 12.9639C180.691 13.5392 180.581 14.1579 180.581 14.8033C180.581 15.4487 180.691 16.0673 180.895 16.6426C181.137 17.3279 181.511 17.9517 181.986 18.482C182.122 18.6343 182.267 18.7796 182.42 18.9163C182.95 19.3913 183.573 19.7651 184.259 20.0073C184.835 20.2106 185.453 20.3214 186.099 20.3214C186.744 20.3214 187.363 20.2106 187.938 20.0073C188.623 19.7651 189.247 19.3913 189.777 18.9163C189.854 18.848 189.928 18.7779 190.001 18.7052L192.602 21.3068C192.294 21.6139 191.965 21.9003 191.617 22.1607C191.051 22.5864 190.434 22.948 189.777 23.2344C189.193 23.4896 188.577 23.686 187.938 23.8158C187.344 23.9369 186.728 24.0001 186.099 24.0001C185.469 24.0001 184.854 23.9369 184.259 23.8158C183.62 23.686 183.004 23.4896 182.42 23.2344C181.763 22.948 181.146 22.5864 180.581 22.1607C179.884 21.6382 179.264 21.0178 178.741 20.3214C178.316 19.7555 177.954 19.1387 177.667 18.482C177.412 17.898 177.216 17.282 177.086 16.6426C176.965 16.0483 176.902 15.4331 176.902 14.8033C176.902 14.1734 176.965 13.5583 177.086 12.9639C177.216 12.3245 177.412 11.7085 177.667 11.1245C177.954 10.4679 178.316 9.851 178.741 9.28518C179.002 8.93651 179.288 8.60774 179.595 8.29974C179.903 7.9926 180.232 7.70623 180.581 7.44581C181.146 7.02014 181.763 6.6585 182.42 6.37213C183.004 6.1169 183.62 5.9205 184.259 5.79073C184.854 5.6696 185.469 5.60645 186.099 5.60645C186.728 5.60645 187.344 5.6696 187.938 5.79073C188.577 5.9205 189.193 6.1169 189.777 6.37213C190.434 6.6585 191.051 7.02014 191.617 7.44581C191.965 7.70623 192.294 7.9926 192.602 8.29974C192.909 8.60774 193.196 8.93651 193.456 9.28518C193.882 9.851 194.243 10.4679 194.53 11.1245C194.785 11.7085 194.981 12.3245 195.111 12.9639C195.232 13.5583 195.295 14.1734 195.295 14.8033Z" fill="#231F20"/>
<path id="Vector_5" d="M170.089 0.0883789V7.44584H170.088C169.522 7.02017 168.906 6.65853 168.249 6.37216C167.665 6.11693 167.05 5.92053 166.41 5.79076C165.815 5.66963 165.2 5.60648 164.57 5.60648C163.941 5.60648 163.325 5.66963 162.731 5.79076C162.092 5.92053 161.476 6.11693 160.892 6.37216C160.235 6.65853 159.618 7.02017 159.052 7.44584C158.704 7.70626 158.375 7.99263 158.067 8.29977C157.76 8.60777 157.473 8.93654 157.213 9.28521C156.787 9.85103 156.426 10.4679 156.139 11.1246C155.884 11.7086 155.688 12.3246 155.558 12.9639C155.437 13.5583 155.374 14.1735 155.374 14.8033C155.374 15.4332 155.437 16.0483 155.558 16.6427C155.688 17.282 155.884 17.898 156.139 18.482C156.426 19.1387 156.787 19.7556 157.213 20.3214C157.736 21.0179 158.356 21.6382 159.052 22.1608C159.618 22.5864 160.235 22.9481 160.892 23.2344C161.476 23.4897 162.092 23.6861 162.731 23.8158C163.325 23.937 163.941 24.0001 164.57 24.0001C165.2 24.0001 165.815 23.937 166.41 23.8158C167.05 23.6861 167.665 23.4897 168.249 23.2344C168.906 22.9481 169.522 22.5864 170.088 22.1608H170.089C170.436 21.8995 170.766 21.614 171.073 21.3068C171.381 20.9988 171.667 20.6701 171.928 20.3214C172.354 19.7556 172.715 19.1387 173.001 18.482C173.257 17.898 173.453 17.282 173.583 16.6427C173.704 16.0483 173.767 15.4332 173.767 14.8033V0.0883789H170.089ZM169.774 16.6427C169.532 17.3279 169.158 17.9517 168.683 18.482C168.615 18.5582 168.545 18.6326 168.472 18.7052C168.4 18.7779 168.325 18.848 168.249 18.9164C167.719 19.3913 167.095 19.7651 166.41 20.0073C165.834 20.2107 165.215 20.3214 164.57 20.3214C163.926 20.3214 163.306 20.2107 162.731 20.0073C162.045 19.7651 161.422 19.3913 160.892 18.9164C160.739 18.7797 160.594 18.6343 160.457 18.482C159.982 17.9517 159.609 17.3279 159.366 16.6427C159.163 16.0673 159.052 15.4479 159.052 14.8033C159.052 14.1587 159.163 13.5393 159.366 12.9639C159.609 12.2779 159.982 11.6549 160.457 11.1246C160.526 11.0484 160.596 10.974 160.668 10.9014C160.741 10.8287 160.816 10.7586 160.892 10.6903C161.422 10.2153 162.045 9.84151 162.731 9.59927C163.306 9.39595 163.925 9.28521 164.57 9.28521C165.216 9.28521 165.834 9.39595 166.41 9.59927C167.095 9.84151 167.719 10.2153 168.249 10.6903C168.325 10.7586 168.4 10.8287 168.472 10.9014C168.545 10.974 168.615 11.0484 168.683 11.1246C169.158 11.6549 169.532 12.2779 169.774 12.9639C169.978 13.5393 170.089 14.1579 170.089 14.8033C170.089 15.4487 169.978 16.0673 169.774 16.6427Z" fill="#231F20"/>
<path id="Vector_6" d="M215.84 5.60645L215.105 7.44581L214.368 9.28518L213.633 11.1245L212.897 12.9639L212.161 14.8033L211.426 16.6426L210.69 18.482L209.954 20.3214L209.218 22.1607L208.482 24.0001H204.804L204.068 22.1607L203.332 20.3214L202.597 18.482L201.86 16.6426L201.125 14.8033L200.39 12.9639L199.653 11.1245L198.918 9.28518L198.182 7.44581L197.446 5.60645H201.125L201.86 7.44581L202.597 9.28518L203.332 11.1245L204.068 12.9639L204.804 14.8033L205.539 16.6426L206.275 18.482L206.643 19.4017L207.011 18.482L207.747 16.6426L208.482 14.8033L209.218 12.9639L209.954 11.1245L210.69 9.28518L211.426 7.44581L212.161 5.60645H215.84Z" fill="#231F20"/>
</g>
<path id="Vector_7" d="M151.238 5.60645L150.503 7.44581L149.766 9.28518L149.031 11.1245L148.295 12.9639L147.559 14.8033L146.824 16.6426L146.088 18.482L145.352 20.3214L144.616 22.1607L143.881 24.0001H140.202L140.937 22.1607L141.674 20.3214L142.409 18.482L143.145 16.6426L143.881 14.8033L144.616 12.9639L145.352 11.1245L146.088 9.28518L146.824 7.44581L147.559 5.60645H151.238Z" fill="#EB2628"/>
<g id="Group_2">
<path id="Vector_8" d="M72.7207 20.233L73.7061 21.2184C73.399 21.5256 73.0694 21.8111 72.7207 22.0724C72.1549 22.498 71.538 22.8597 70.8813 23.146C70.2973 23.4013 69.6822 23.5977 69.042 23.7274C68.4476 23.8486 67.8324 23.9117 67.2026 23.9117C66.5727 23.9117 65.9576 23.8486 65.3632 23.7274C64.723 23.5977 64.1079 23.4013 63.5239 23.146C62.8672 22.8597 62.2503 22.498 61.6845 22.0724C61.3358 21.8111 61.0062 21.5256 60.6991 21.2184C60.3919 20.9104 60.1056 20.5817 59.8451 20.233C59.4195 19.6672 59.0578 19.0503 58.7714 18.3936C58.5162 17.8096 58.3198 17.1936 58.1901 16.5543C58.0689 15.9599 58.0058 15.3447 58.0058 14.7149C58.0058 14.085 58.0689 13.4699 58.1901 12.8755C58.3198 12.2362 58.5162 11.6202 58.7714 11.0362C59.0578 10.3795 59.4195 9.76262 59.8451 9.1968C60.1056 8.84813 60.3919 8.51936 60.6991 8.21136C61.0062 7.90422 61.3358 7.61872 61.6845 7.35743C62.2503 6.93177 62.8672 6.57012 63.5239 6.28375C64.1079 6.02852 64.723 5.83213 65.3632 5.70235C65.9576 5.58122 66.5727 5.51807 67.2026 5.51807C67.8324 5.51807 68.4476 5.58122 69.042 5.70235C69.6822 5.83213 70.2973 6.02852 70.8813 6.28375C71.538 6.57012 72.1549 6.93177 72.7207 7.35743C73.0694 7.61872 73.399 7.90422 73.7061 8.21136L72.7207 9.1968L71.1045 10.8129C71.0319 10.7403 70.9575 10.6702 70.8813 10.6018C70.351 10.1269 69.7272 9.75311 69.042 9.51086C68.4666 9.30754 67.8472 9.1968 67.2026 9.1968C66.558 9.1968 65.9386 9.30754 65.3632 9.51086C64.678 9.75311 64.0542 10.1269 63.5239 10.6027C63.4469 10.6702 63.3733 10.7403 63.3007 10.8129C63.228 10.8856 63.1579 10.96 63.0895 11.0362C62.6146 11.5665 62.2408 12.1894 61.9986 12.8755C61.7952 13.4509 61.6845 14.0695 61.6845 14.7149C61.6845 15.3603 61.7952 15.9789 61.9986 16.5543C62.2408 17.2395 62.6146 17.8633 63.0895 18.3936C63.1579 18.4698 63.228 18.5442 63.3007 18.6168C63.3733 18.6895 63.4469 18.7596 63.5239 18.8271C64.0542 19.3029 64.678 19.6767 65.3632 19.9189C65.9386 20.1222 66.5572 20.233 67.2026 20.233C67.848 20.233 68.4666 20.1222 69.042 19.9189C69.7272 19.6767 70.351 19.3029 70.8813 18.8279C70.9575 18.7596 71.0319 18.6895 71.1045 18.6168L72.7207 20.233Z" fill="#0A5BA8"/>
<path id="Vector_9" d="M93.7549 12.8755C93.6251 12.2362 93.4287 11.6202 93.1735 11.0362C92.8871 10.3795 92.5254 9.76262 92.0998 9.1968C91.8394 8.84813 91.553 8.51936 91.2459 8.21136C90.9387 7.90422 90.6091 7.61872 90.2604 7.35743C89.6946 6.93177 89.0777 6.57012 88.421 6.28375C87.8371 6.02852 87.2219 5.83213 86.5817 5.70235C85.9873 5.58122 85.3722 5.51807 84.7423 5.51807C84.1125 5.51807 83.4973 5.58122 82.9029 5.70235C82.2627 5.83213 81.6476 6.02852 81.0636 6.28375C80.4069 6.57012 79.79 6.93177 79.2242 7.35743C78.8756 7.61872 78.5459 7.90422 78.2388 8.21136C77.9316 8.51936 77.6453 8.84813 77.3849 9.1968C76.9592 9.76262 76.5975 10.3795 76.3112 11.0362C76.0559 11.6202 75.8595 12.2362 75.7298 12.8755C75.6086 13.4699 75.5455 14.085 75.5455 14.7149C75.5455 15.3447 75.6086 15.9599 75.7298 16.5543C75.8595 17.1936 76.0559 17.8096 76.3112 18.3936C76.5975 19.0503 76.9592 19.6672 77.3849 20.233C77.9074 20.9295 78.5269 21.5498 79.2242 22.0724C79.79 22.498 80.4069 22.8597 81.0636 23.146C81.6476 23.4013 82.2627 23.5977 82.9029 23.7274C83.4973 23.8486 84.1125 23.9117 84.7423 23.9117C85.3722 23.9117 85.9873 23.8486 86.5817 23.7274C87.2219 23.5977 87.8371 23.4013 88.421 23.146C89.0777 22.8597 89.6946 22.498 90.2604 22.0724V23.9117H93.9391V14.7149C93.9391 14.085 93.876 13.4699 93.7549 12.8755ZM89.9464 16.5543C89.7041 17.2395 89.3303 17.8633 88.8554 18.3936C88.787 18.4698 88.7169 18.5442 88.6443 18.6168C88.5716 18.6895 88.498 18.7596 88.421 18.8271C87.8907 19.3029 87.2669 19.6767 86.5817 19.9189C86.0063 20.1222 85.3877 20.233 84.7423 20.233C84.0969 20.233 83.4783 20.1222 82.9029 19.9189C82.2177 19.6767 81.5939 19.3029 81.0636 18.8279C80.9104 18.6912 80.766 18.5459 80.6293 18.3936C80.1543 17.8633 79.7805 17.2395 79.5383 16.5543C79.335 15.9789 79.2242 15.3595 79.2242 14.7149C79.2242 14.0703 79.335 13.4509 79.5383 12.8755C79.7805 12.1894 80.1543 11.5665 80.6293 11.0362C80.6976 10.96 80.7677 10.8856 80.8404 10.8129C80.913 10.7403 80.9875 10.6702 81.0636 10.6018C81.5939 10.1269 82.2177 9.75311 82.9029 9.51086C83.4783 9.30754 84.0978 9.1968 84.7423 9.1968C85.3869 9.1968 86.0063 9.30754 86.5817 9.51086C87.2669 9.75311 87.8907 10.1269 88.421 10.6027C88.498 10.6702 88.5716 10.7403 88.6443 10.8129C88.7169 10.8856 88.787 10.96 88.8554 11.0362C89.3303 11.5665 89.7041 12.1894 89.9464 12.8755C90.1497 13.4509 90.2604 14.0695 90.2604 14.7149C90.2604 15.3603 90.1497 15.9789 89.9464 16.5543Z" fill="#0A5BA8"/>
<path id="Vector_10" d="M134.405 14.7149V23.9118H130.726V14.7149C130.726 14.0695 130.616 13.4509 130.412 12.8756C130.17 12.1895 129.796 11.5665 129.321 11.0362C129.253 10.9601 129.183 10.8857 129.11 10.813C129.038 10.7403 128.963 10.6702 128.887 10.6019C128.357 10.1269 127.733 9.75314 127.048 9.51089C126.472 9.30757 125.853 9.19683 125.208 9.19683C124.564 9.19683 123.944 9.30757 123.369 9.51089C122.683 9.75314 122.06 10.1269 121.53 10.6019C121.453 10.6702 121.379 10.7403 121.306 10.813C121.234 10.8857 121.164 10.9601 121.095 11.0362C120.62 11.5665 120.247 12.1895 120.004 12.8756C119.801 13.4509 119.69 14.0695 119.69 14.7149V23.9118H116.012V0H119.69V7.35746C120.256 6.9318 120.873 6.57015 121.53 6.28378C122.114 6.02855 122.73 5.83216 123.369 5.70238C123.963 5.58125 124.579 5.5181 125.208 5.5181C125.838 5.5181 126.453 5.58125 127.048 5.70238C127.687 5.83216 128.303 6.02855 128.887 6.28378C129.544 6.57015 130.161 6.9318 130.726 7.35746C131.075 7.61788 131.404 7.90425 131.712 8.21139C132.019 8.51939 132.305 8.84816 132.566 9.19683C132.991 9.76265 133.353 10.3795 133.64 11.0362C133.895 11.6202 134.091 12.2362 134.221 12.8756C134.342 13.4699 134.405 14.0851 134.405 14.7149Z" fill="#0A5BA8"/>
<path id="Vector_11" d="M113.858 16.5543C113.616 15.8682 113.242 15.2452 112.767 14.7149C112.699 14.6388 112.629 14.5644 112.556 14.4917C112.483 14.419 112.409 14.3489 112.333 14.2806C111.802 13.8056 111.179 13.4318 110.493 13.1896C109.918 12.9863 109.299 12.8755 108.654 12.8755H101.297C100.281 12.8755 99.4573 12.0519 99.4573 11.0362C99.4573 10.5283 99.6632 10.0689 99.9963 9.7358C100.329 9.40271 100.789 9.1968 101.297 9.1968H112.502V5.51807H101.297C100.652 5.51807 100.033 5.62881 99.4573 5.83213C98.772 6.07438 98.1482 6.44813 97.6179 6.92311C97.5417 6.99146 97.4673 7.06154 97.3947 7.13422C97.322 7.20689 97.2519 7.2813 97.1836 7.35743C96.7086 7.88779 96.3348 8.51071 96.0926 9.1968C95.8893 9.77214 95.7785 10.3907 95.7785 11.0362C95.7785 11.6816 95.8893 12.3002 96.0926 12.8755C96.3348 13.5607 96.7086 14.1845 97.1836 14.7149C97.3203 14.8672 97.4656 15.0125 97.6179 15.1492C98.1482 15.6242 98.772 15.998 99.4573 16.2402C100.033 16.4435 100.652 16.5543 101.297 16.5543H108.654C109.162 16.5543 109.621 16.7602 109.954 17.0933C110.288 17.4264 110.493 17.8858 110.493 18.3936C110.493 19.4093 109.67 20.233 108.654 20.233H95.7785V23.9117H108.654C109.299 23.9117 109.918 23.801 110.493 23.5977C111.179 23.3554 111.802 22.9817 112.333 22.5067C112.485 22.37 112.63 22.2246 112.767 22.0724C113.242 21.542 113.616 20.9182 113.858 20.233C114.061 19.6576 114.172 19.0382 114.172 18.3936C114.172 17.7491 114.061 17.1296 113.858 16.5543Z" fill="#0A5BA8"/>
</g>
</g>
<defs>
<clipPath id="clip0_1049_9288">
<rect width="215.84" height="24" fill="white"/>
</clipPath>
</defs>
</svg>
