<svg width="40" height="40" viewBox="0 0 40 40" fill="none" xmlns="http://www.w3.org/2000/svg">
<g id="format_quote">
<mask id="mask0_1967_19216" style="mask-type:alpha" maskUnits="userSpaceOnUse" x="0" y="0" width="40" height="40">
<rect id="Bounding box" width="40" height="40" fill="#D9D9D9"/>
</mask>
<g mask="url(#mask0_1967_19216)">
<path id="format_quote_2" d="M4.78412 38.2353L10.2747 28.7453C10.1437 28.7712 9.9998 28.7908 9.84294 28.8041C9.68608 28.8171 9.54235 28.8235 9.41176 28.8235C6.82353 28.8235 4.60784 27.902 2.76471 26.0588C0.921569 24.2157 0 22 0 19.4118C0 16.8235 0.921569 14.6078 2.76471 12.7647C4.60784 10.9216 6.82353 10 9.41176 10C12 10 14.2157 10.9216 16.0588 12.7647C17.902 14.6078 18.8235 16.8235 18.8235 19.4118C18.8235 20.2616 18.7157 21.0753 18.5 21.8529C18.2843 22.6306 17.9608 23.3855 17.5294 24.1176L9.41176 38.2353H4.78412ZM25.9606 38.2353L31.4512 28.7453C31.3202 28.7712 31.1763 28.7908 31.0194 28.8041C30.8625 28.8171 30.7188 28.8235 30.5882 28.8235C28 28.8235 25.7843 27.902 23.9412 26.0588C22.098 24.2157 21.1765 22 21.1765 19.4118C21.1765 16.8235 22.098 14.6078 23.9412 12.7647C25.7843 10.9216 28 10 30.5882 10C33.1765 10 35.3922 10.9216 37.2353 12.7647C39.0784 14.6078 40 16.8235 40 19.4118C40 20.2616 39.8922 21.0753 39.6765 21.8529C39.4608 22.6306 39.1373 23.3855 38.7059 24.1176L30.5882 38.2353H25.9606Z" fill="#E31A1C"/>
</g>
</g>
</svg>
