<svg width="20" height="20" viewBox="0 0 20 20" fill="none" xmlns="http://www.w3.org/2000/svg">
<g id="keyboard_arrow_right">
<mask id="mask0_1967_18827" style="mask-type:alpha" maskUnits="userSpaceOnUse" x="0" y="0" width="20" height="20">
<rect id="Bounding box" width="20" height="20" fill="#D9D9D9"/>
</mask>
<g mask="url(#mask0_1967_18827)">
<path id="keyboard_arrow_right_2" d="M10.875 9.99999L7.45834 6.58332C7.30556 6.43055 7.22917 6.25346 7.22917 6.05207C7.22917 5.85068 7.30556 5.6736 7.45834 5.52082C7.61112 5.36805 7.7882 5.29166 7.98959 5.29166C8.19098 5.29166 8.37042 5.37041 8.52792 5.52791L12.4792 9.47916C12.5486 9.55416 12.6007 9.63541 12.6354 9.72291C12.6701 9.81041 12.6875 9.90416 12.6875 10.0042C12.6875 10.1042 12.6701 10.1979 12.6354 10.2854C12.6007 10.3729 12.5486 10.4514 12.4792 10.5208L8.52792 14.4721C8.37042 14.6296 8.19445 14.7049 8.00001 14.6979C7.80556 14.691 7.63195 14.6111 7.47917 14.4583C7.32639 14.3055 7.25001 14.1285 7.25001 13.9271C7.25001 13.7257 7.32639 13.5486 7.47917 13.3958L10.875 9.99999Z" fill="#009EFF"/>
</g>
</g>
</svg>
