<svg width="40" height="40" viewBox="0 0 40 40" fill="none" xmlns="http://www.w3.org/2000/svg">
<g id="rocket_launch">
<mask id="mask0_1967_18807" style="mask-type:alpha" maskUnits="userSpaceOnUse" x="0" y="0" width="40" height="40">
<rect id="Bounding box" width="40" height="40" fill="#D9D9D9"/>
</mask>
<g mask="url(#mask0_1967_18807)">
<path id="rocket_launch_2" d="M4.08333 17.625L11.0833 10.625C11.4722 10.2361 11.9306 9.95835 12.4583 9.79169C12.9861 9.62502 13.5278 9.59724 14.0833 9.70835L16.9446 10.25C15.426 11.9909 14.2083 13.6159 13.2917 15.125C12.375 16.6342 11.5139 18.4165 10.7083 20.4721L4.08333 17.625ZM12.5417 21.3613C13.2547 19.3427 14.1738 17.4399 15.2988 15.6529C16.4238 13.8657 17.7269 12.2314 19.2083 10.75C21.6528 8.30558 24.4444 6.47919 27.5833 5.27085C30.7222 4.06252 33.6528 3.69446 36.375 4.16669C36.8472 6.88891 36.4861 9.81946 35.2917 12.9584C34.0972 16.0972 32.2778 18.8889 29.8333 21.3334C28.3611 22.8056 26.7222 24.1088 24.9167 25.2429C23.1111 26.3774 21.199 27.301 19.1804 28.0138L12.5417 21.3613ZM24.3196 16.2221C24.9029 16.8054 25.6228 17.0971 26.4792 17.0971C27.3356 17.0971 28.0554 16.8054 28.6388 16.2221C29.2221 15.6388 29.5138 14.9189 29.5138 14.0625C29.5138 13.2061 29.2221 12.4863 28.6388 11.9029C28.0554 11.3196 27.3356 11.0279 26.4792 11.0279C25.6228 11.0279 24.9029 11.3196 24.3196 11.9029C23.7362 12.4863 23.4446 13.2061 23.4446 14.0625C23.4446 14.9189 23.7362 15.6388 24.3196 16.2221ZM22.9583 36.4584L20.0696 29.8334C22.1251 29.0278 23.9099 28.1667 25.4237 27.25C26.9376 26.3334 28.5649 25.1157 30.3054 23.5971L30.8333 26.4584C30.9444 27.0139 30.9167 27.5625 30.75 28.1042C30.5833 28.6459 30.3056 29.1111 29.9167 29.5L22.9583 36.4584ZM6.75 26.75C7.72222 25.7778 8.90278 25.2847 10.2917 25.2709C11.6806 25.257 12.8611 25.7361 13.8333 26.7084C14.8056 27.6806 15.2917 28.8611 15.2917 30.25C15.2917 31.6389 14.8056 32.8195 13.8333 33.7917C13.1203 34.5047 11.9837 35.102 10.4237 35.5834C8.86347 36.0647 6.59722 36.5092 3.625 36.9167C4.0325 33.9445 4.47694 31.6852 4.95833 30.1388C5.43972 28.5927 6.03694 27.4631 6.75 26.75Z" fill="#E31A1C"/>
</g>
</g>
</svg>
